<svg xmlns="http://www.w3.org/2000/svg">
    <symbol id="icon-search-zinc" viewBox="0 0 48 48" fill="none">
<path fill-rule="evenodd" clip-rule="evenodd" d="M16.0039 22.5814C16.0039 18.7005 19.1619 15.5435 23.0429 15.5435C26.9229 15.5435 30.0809 18.7005 30.0809 22.5814C30.0809 26.4624 26.9229 29.6204 23.0429 29.6204C19.1619 29.6204 16.0039 26.4624 16.0039 22.5814ZM34.4989 33.0404L29.8999 28.4534C31.2559 26.8724 32.0809 24.8234 32.0809 22.5814C32.0809 17.5985 28.0259 13.5435 23.0429 13.5435C18.0589 13.5435 14.0039 17.5985 14.0039 22.5814C14.0039 27.5654 18.0589 31.6204 23.0429 31.6204C25.0649 31.6204 26.9279 30.9444 28.4349 29.8174L33.0869 34.4564L34.4989 33.0404Z" fill="#6D6D6D"/>

    </symbol>

<symbol id="icon-instagram" viewBox="0 0 48 48" fill="none">
<path fill-rule="evenodd" clip-rule="evenodd" d="M15.7402 15.8974C16.7247 14.8412 18.1267 14.25 19.7822 14.25H28.2169C29.8762 14.25 31.2788 14.8408 32.2629 15.8977C33.2413 16.9484 33.75 18.3989 33.75 20.0264V27.9736C33.75 29.6011 33.2413 31.0516 32.2627 32.1024C31.2785 33.1592 29.8756 33.75 28.2159 33.75H19.7822C18.1228 33.75 16.7204 33.1591 15.7366 32.1023C14.7584 31.0515 14.25 29.601 14.25 27.9736V20.0264C14.25 18.3981 14.7612 16.9477 15.7402 15.8974ZM16.8375 16.9201C16.1602 17.6467 15.75 18.7095 15.75 20.0264V27.9736C15.75 29.2914 16.1586 30.3541 16.8345 31.0802C17.5047 31.8003 18.4934 32.25 19.7822 32.25H28.2159C29.5052 32.25 30.4944 31.8002 31.165 31.0801C31.8412 30.354 32.25 29.2913 32.25 27.9736V20.0264C32.25 18.7087 31.8412 17.646 31.1651 16.9198C30.4946 16.1997 29.5056 15.75 28.2169 15.75H19.7822C18.4983 15.75 17.5092 16.1994 16.8375 16.9201Z" fill="#6D6D6D"/>
<path fill-rule="evenodd" clip-rule="evenodd" d="M23.8464 21.5781C22.3263 21.5781 21.0937 22.8108 21.0937 24.3308C21.0937 25.8509 22.3263 27.0835 23.8464 27.0835C25.3665 27.0835 26.5992 25.8509 26.5992 24.3308C26.5992 22.8108 25.3665 21.5781 23.8464 21.5781ZM19.5938 24.3308C19.5938 21.9823 21.498 20.0781 23.8464 20.0781C26.1949 20.0781 28.0991 21.9823 28.0991 24.3308C28.0991 26.6793 26.1949 28.5835 23.8464 28.5835C21.498 28.5835 19.5938 26.6793 19.5938 24.3308Z" fill="#6D6D6D"/>
<path fill-rule="evenodd" clip-rule="evenodd" d="M27.8281 19.3787C27.8281 18.8076 28.2918 18.3438 28.8631 18.3438C29.4377 18.3438 29.8971 18.811 29.8971 19.3787C29.8971 19.95 29.4343 20.4128 28.8631 20.4128C28.2952 20.4128 27.8281 19.9533 27.8281 19.3787Z" fill="#6D6D6D"/>
</symbol>

<symbol id="icon-white-phone" viewBox="0 0 25 24" fill="none">
<path d="M17.7827 21.75C15.4107 21.75 12.3227 19.865 8.60566 16.15C4.87266 12.417 2.98666 9.319 3.00066 6.943C2.99096 6.43846 3.08845 5.93761 3.28669 5.47356C3.48493 5.0095 3.77941 4.5928 4.15066 4.251C4.16766 4.23 4.22066 4.179 4.23966 4.16C5.60466 2.792 6.50466 2.25 7.45066 2.25C8.52566 2.264 9.28366 3.062 10.2447 4.071C10.4797 4.319 10.7357 4.588 11.0207 4.871C11.5104 5.31625 11.833 5.91562 11.9351 6.56957C12.0371 7.22353 11.9124 7.89271 11.5817 8.466C11.1697 9.519 10.8147 10.427 12.5697 12.182C14.3257 13.937 15.2327 13.582 16.2847 13.167C16.8577 12.8364 17.5266 12.7116 18.1804 12.8135C18.8341 12.9154 19.4333 13.2377 19.8787 13.727C20.1587 14.007 20.4247 14.26 20.6697 14.493C21.6847 15.458 22.4857 16.221 22.4997 17.293C22.5107 18.209 21.9587 19.14 20.5937 20.505L20.5007 20.594C20.1587 20.9651 19.742 21.2595 19.278 21.4577C18.814 21.6559 18.3132 21.7535 17.8087 21.744L17.7827 21.75ZM5.30366 5.216C5.30366 5.216 5.25766 5.265 5.19666 5.325C4.96851 5.52883 4.78765 5.78005 4.66674 6.06109C4.54582 6.34213 4.48778 6.64619 4.49666 6.952C4.48866 8.3 5.37866 10.805 9.66266 15.088C13.9247 19.349 16.4267 20.25 17.7777 20.25H17.7957C18.1018 20.2592 18.4063 20.2013 18.6877 20.0803C18.9691 19.9594 19.2206 19.7784 19.4247 19.55C19.4772 19.4951 19.5326 19.443 19.5907 19.394C20.5227 18.456 21.0017 17.758 20.9967 17.316C20.9917 16.874 20.4217 16.329 19.6337 15.579C19.3797 15.338 19.1047 15.079 18.8147 14.787C18.0937 14.066 17.6977 14.223 16.8297 14.563C15.6147 15.04 13.9547 15.689 11.5067 13.242C9.05766 10.794 9.70666 9.132 10.1817 7.919C10.5217 7.049 10.6817 6.652 9.95666 5.931C9.66266 5.638 9.39766 5.359 9.15666 5.103C8.41166 4.32 7.87366 3.753 7.43066 3.748C6.98766 3.743 6.29066 4.224 5.29566 5.218L5.30366 5.216Z" fill="white"/>
</symbol>

<symbol id="flight-search-icon-active" viewBox="0 0 24 25" fill="none">
<path fill-rule="evenodd" clip-rule="evenodd" d="M21.657 11.4027C21.4611 10.7067 21.035 10.1737 20.426 9.86071C19.251 9.25671 17.849 9.6527 17.301 9.8507C16.213 10.2437 15.164 10.7047 14.071 11.1467C12.856 10.0217 11.621 8.93671 10.468 7.93171C9.64207 7.20971 8.79407 6.94471 7.94107 7.14871C7.49807 7.25671 7.07907 7.41771 6.67407 7.57271C6.46807 7.65271 6.25807 7.73271 6.04207 7.80771C5.84607 7.87471 5.68807 8.01971 5.60307 8.20771C5.51807 8.39671 5.51407 8.6117 5.59307 8.8027L7.66307 13.8217C6.94907 14.1217 6.07207 14.4937 5.24507 14.8447L4.00007 15.3727C3.87707 15.0747 3.74407 14.7547 3.69507 14.6327C3.53707 14.2507 3.10107 14.0647 2.71707 14.2227C2.33307 14.3797 2.14907 14.8177 2.30607 15.2007C2.39607 15.4217 2.75507 16.2857 2.84907 16.5107C2.86807 16.5557 2.88807 16.5997 2.90707 16.6437L2.90907 16.6467C2.91507 16.6607 2.92107 16.6747 2.92807 16.6887C3.81607 18.6317 5.29407 19.6617 7.08407 19.6617C7.76007 19.6617 8.48207 19.5137 9.23307 19.2127C12.532 17.8957 15.699 16.5717 19.501 14.9757C20.858 14.3947 22.113 13.0277 21.657 11.4027Z" fill="white"/>
</symbol>

<symbol id="flight-search-icon" viewBox="0 0 24 25" fill="none">
<path fill-rule="evenodd" clip-rule="evenodd" d="M21.657 11.4027C21.4611 10.7067 21.035 10.1737 20.426 9.86071C19.251 9.25671 17.849 9.6527 17.301 9.8507C16.213 10.2437 15.164 10.7047 14.071 11.1467C12.856 10.0217 11.621 8.93671 10.468 7.93171C9.64207 7.20971 8.79407 6.94471 7.94107 7.14871C7.49807 7.25671 7.07907 7.41771 6.67407 7.57271C6.46807 7.65271 6.25807 7.73271 6.04207 7.80771C5.84607 7.87471 5.68807 8.01971 5.60307 8.20771C5.51807 8.39671 5.51407 8.6117 5.59307 8.8027L7.66307 13.8217C6.94907 14.1217 6.07207 14.4937 5.24507 14.8447L4.00007 15.3727C3.87707 15.0747 3.74407 14.7547 3.69507 14.6327C3.53707 14.2507 3.10107 14.0647 2.71707 14.2227C2.33307 14.3797 2.14907 14.8177 2.30607 15.2007C2.39607 15.4217 2.75507 16.2857 2.84907 16.5107C2.86807 16.5557 2.88807 16.5997 2.90707 16.6437L2.90907 16.6467C2.91507 16.6607 2.92107 16.6747 2.92807 16.6887C3.81607 18.6317 5.29407 19.6617 7.08407 19.6617C7.76007 19.6617 8.48207 19.5137 9.23307 19.2127C12.532 17.8957 15.699 16.5717 19.501 14.9757C20.858 14.3947 22.113 13.0277 21.657 11.4027Z" fill="#626262"/>
</symbol>

<symbol id="hotel-search-icon" viewBox="0 0 24 25" fill="none">
<path fill-rule="evenodd" clip-rule="evenodd" d="M4.62109 11.1431H6.83909C6.94954 11.1431 7.03854 11.0535 7.03761 10.9431C7.03538 10.6766 7.03865 10.4043 7.12609 10.1531C7.28009 9.72606 7.60909 9.39706 8.03109 9.24606C8.27809 9.15706 8.52709 9.15706 8.97909 9.15706H9.59909C10.0521 9.15706 10.3021 9.15706 10.5481 9.24706C10.9691 9.39706 11.2981 9.72606 11.4501 10.1471C11.5383 10.4007 11.5424 10.6745 11.5405 10.9431C11.5397 11.0535 11.6287 11.1431 11.7391 11.1431H12.3391C12.4496 11.1431 12.5386 11.0535 12.5377 10.9431C12.5354 10.6766 12.5387 10.4043 12.6261 10.1531C12.7801 9.72606 13.1091 9.39706 13.5311 9.24606C13.7781 9.15706 14.0271 9.15706 14.4791 9.15706H15.0991C15.5521 9.15706 15.8021 9.15706 16.0481 9.24706C16.4691 9.39706 16.7981 9.72606 16.9501 10.1471C17.0383 10.4007 17.0424 10.6745 17.0405 10.9431C17.0397 11.0535 17.1287 11.1431 17.2391 11.1431H19.4581C19.7351 11.1431 19.9581 10.9191 19.9581 10.6431V7.42906C19.9581 6.65806 19.9581 6.27106 19.8261 5.90306C19.5981 5.27106 19.1041 4.77906 18.4801 4.55606C18.1061 4.41406 17.7171 4.41406 16.9401 4.41406H7.14009C6.36309 4.41406 5.97409 4.41406 5.61009 4.55306C4.97609 4.77906 4.48209 5.27106 4.25409 5.90306C4.12109 6.27006 4.12109 6.65806 4.12109 7.42906V10.6431C4.12109 10.9191 4.34509 11.1431 4.62109 11.1431Z" fill="#626262"/>
<path fill-rule="evenodd" clip-rule="evenodd" d="M21.6501 13.6459C21.4171 12.9939 20.9051 12.4759 20.2231 12.2179C19.8421 12.0879 19.4481 12.0879 18.7341 12.0879H5.34206C4.62806 12.0879 4.23506 12.0879 3.83106 12.2269C3.17306 12.4759 2.66206 12.9929 2.42906 13.6409C2.28906 14.0249 2.28906 14.4199 2.28906 15.1379V19.8379C2.28906 20.2519 2.62506 20.5879 3.03906 20.5879C3.45306 20.5879 3.78906 20.2519 3.78906 19.8379V19.5479C3.78906 19.4374 3.87861 19.3479 3.98906 19.3479H20.0891C20.1995 19.3479 20.2891 19.4374 20.2891 19.5479V19.8379C20.2891 20.2519 20.6251 20.5879 21.0391 20.5879C21.4531 20.5879 21.7891 20.2519 21.7891 19.8379V15.1379C21.7891 14.4199 21.7891 14.0249 21.6501 13.6459Z" fill="#626262"/>

</symbol>

<symbol id="hotel-search-icon-active" viewBox="0 0 24 25" fill="none">
<path fill-rule="evenodd" clip-rule="evenodd" d="M4.62109 11.1431H6.83909C6.94954 11.1431 7.03854 11.0535 7.03761 10.9431C7.03538 10.6766 7.03865 10.4043 7.12609 10.1531C7.28009 9.72606 7.60909 9.39706 8.03109 9.24606C8.27809 9.15706 8.52709 9.15706 8.97909 9.15706H9.59909C10.0521 9.15706 10.3021 9.15706 10.5481 9.24706C10.9691 9.39706 11.2981 9.72606 11.4501 10.1471C11.5383 10.4007 11.5424 10.6745 11.5405 10.9431C11.5397 11.0535 11.6287 11.1431 11.7391 11.1431H12.3391C12.4496 11.1431 12.5386 11.0535 12.5377 10.9431C12.5354 10.6766 12.5387 10.4043 12.6261 10.1531C12.7801 9.72606 13.1091 9.39706 13.5311 9.24606C13.7781 9.15706 14.0271 9.15706 14.4791 9.15706H15.0991C15.5521 9.15706 15.8021 9.15706 16.0481 9.24706C16.4691 9.39706 16.7981 9.72606 16.9501 10.1471C17.0383 10.4007 17.0424 10.6745 17.0405 10.9431C17.0397 11.0535 17.1287 11.1431 17.2391 11.1431H19.4581C19.7351 11.1431 19.9581 10.9191 19.9581 10.6431V7.42906C19.9581 6.65806 19.9581 6.27106 19.8261 5.90306C19.5981 5.27106 19.1041 4.77906 18.4801 4.55606C18.1061 4.41406 17.7171 4.41406 16.9401 4.41406H7.14009C6.36309 4.41406 5.97409 4.41406 5.61009 4.55306C4.97609 4.77906 4.48209 5.27106 4.25409 5.90306C4.12109 6.27006 4.12109 6.65806 4.12109 7.42906V10.6431C4.12109 10.9191 4.34509 11.1431 4.62109 11.1431Z" fill="#ffffff"/>
<path fill-rule="evenodd" clip-rule="evenodd" d="M21.6501 13.6459C21.4171 12.9939 20.9051 12.4759 20.2231 12.2179C19.8421 12.0879 19.4481 12.0879 18.7341 12.0879H5.34206C4.62806 12.0879 4.23506 12.0879 3.83106 12.2269C3.17306 12.4759 2.66206 12.9929 2.42906 13.6409C2.28906 14.0249 2.28906 14.4199 2.28906 15.1379V19.8379C2.28906 20.2519 2.62506 20.5879 3.03906 20.5879C3.45306 20.5879 3.78906 20.2519 3.78906 19.8379V19.5479C3.78906 19.4374 3.87861 19.3479 3.98906 19.3479H20.0891C20.1995 19.3479 20.2891 19.4374 20.2891 19.5479V19.8379C20.2891 20.2519 20.6251 20.5879 21.0391 20.5879C21.4531 20.5879 21.7891 20.2519 21.7891 19.8379V15.1379C21.7891 14.4199 21.7891 14.0249 21.6501 13.6459Z" fill="#ffffff"/>
</symbol>

<symbol id="insurance-search-icon" viewBox="0 0 24 25" fill="none">
<path fill-rule="evenodd" clip-rule="evenodd" d="M15.9601 18.6055C15.5461 18.6055 15.2101 18.9415 15.2101 19.3555C15.2101 20.0335 14.6581 20.5855 13.9801 20.5855C13.3011 20.5855 12.7481 20.0335 12.7481 19.3555V14.6755C12.7481 14.565 12.8376 14.4755 12.9481 14.4755H14.7767C14.8877 14.4755 14.9775 14.3836 14.9756 14.2726C14.8935 9.6236 13.1254 6.7961 12.1467 5.58629C12.0694 5.49079 11.9267 5.49076 11.8494 5.58623C10.8713 6.7945 9.10166 9.62203 9.01956 14.2726C9.0176 14.3836 9.10746 14.4755 9.21847 14.4755H11.0481C11.1585 14.4755 11.2481 14.565 11.2481 14.6755V19.3555C11.2481 20.8605 12.4741 22.0855 13.9801 22.0855C15.4851 22.0855 16.7101 20.8605 16.7101 19.3555C16.7101 18.9415 16.3741 18.6055 15.9601 18.6055Z" fill="#626262"/>
<path fill-rule="evenodd" clip-rule="evenodd" d="M11.0133 4.25176C11.1401 4.11283 11.0326 3.88275 10.846 3.9062C6.68185 4.42967 3.27094 7.74855 2.52602 12.1942C2.43202 12.7602 2.59302 13.3372 2.96602 13.7782C3.34202 14.2212 3.88902 14.4752 4.46802 14.4752H7.31824C7.42822 14.4752 7.51748 14.3842 7.51921 14.2743C7.60795 8.61207 9.96037 5.40576 11.0133 4.25176Z" fill="#626262"/>
<path fill-rule="evenodd" clip-rule="evenodd" d="M21.4719 12.1937C20.7269 7.75012 17.3161 4.43136 13.1521 3.90694C12.9654 3.88343 12.8579 4.11356 12.9847 4.25251C14.0375 5.40666 16.3891 8.61294 16.4786 14.2749C16.4804 14.3848 16.5696 14.4757 16.6796 14.4757H19.5309C20.1099 14.4757 20.6579 14.2207 21.0339 13.7767C21.4069 13.3367 21.5669 12.7597 21.4719 12.1937Z" fill="#626262"/>


</symbol>

<symbol id="insurance-search-icon-active" viewBox="0 0 24 25" fill="none">
<path fill-rule="evenodd" clip-rule="evenodd" d="M15.9601 18.6055C15.5461 18.6055 15.2101 18.9415 15.2101 19.3555C15.2101 20.0335 14.6581 20.5855 13.9801 20.5855C13.3011 20.5855 12.7481 20.0335 12.7481 19.3555V14.6755C12.7481 14.565 12.8376 14.4755 12.9481 14.4755H14.7767C14.8877 14.4755 14.9775 14.3836 14.9756 14.2726C14.8935 9.6236 13.1254 6.7961 12.1467 5.58629C12.0694 5.49079 11.9267 5.49076 11.8494 5.58623C10.8713 6.7945 9.10166 9.62203 9.01956 14.2726C9.0176 14.3836 9.10746 14.4755 9.21847 14.4755H11.0481C11.1585 14.4755 11.2481 14.565 11.2481 14.6755V19.3555C11.2481 20.8605 12.4741 22.0855 13.9801 22.0855C15.4851 22.0855 16.7101 20.8605 16.7101 19.3555C16.7101 18.9415 16.3741 18.6055 15.9601 18.6055Z" fill="#fff"/>
<path fill-rule="evenodd" clip-rule="evenodd" d="M11.0133 4.25176C11.1401 4.11283 11.0326 3.88275 10.846 3.9062C6.68185 4.42967 3.27094 7.74855 2.52602 12.1942C2.43202 12.7602 2.59302 13.3372 2.96602 13.7782C3.34202 14.2212 3.88902 14.4752 4.46802 14.4752H7.31824C7.42822 14.4752 7.51748 14.3842 7.51921 14.2743C7.60795 8.61207 9.96037 5.40576 11.0133 4.25176Z" fill="#fff"/>
<path fill-rule="evenodd" clip-rule="evenodd" d="M21.4719 12.1937C20.7269 7.75012 17.3161 4.43136 13.1521 3.90694C12.9654 3.88343 12.8579 4.11356 12.9847 4.25251C14.0375 5.40666 16.3891 8.61294 16.4786 14.2749C16.4804 14.3848 16.5696 14.4757 16.6796 14.4757H19.5309C20.1099 14.4757 20.6579 14.2207 21.0339 13.7767C21.4069 13.3367 21.5669 12.7597 21.4719 12.1937Z" fill="#fff"/>

</symbol>

<symbol id="engine-departureflight-icon" viewBox="0 0 48 48" fill="none">
<path d="M17.4221 27.2094H17.4281C20.7661 27.2094 24.709 27.1964 28.636 27.1254C31.671 27.0714 33.49 25.1954 33.5 22.1064C33.5 21.8754 33.493 21.0064 33.491 20.7154C33.485 20.5227 33.405 20.3396 33.2677 20.2042C33.1304 20.0688 32.9462 19.9914 32.7534 19.988C32.5606 19.9847 32.3738 20.0557 32.2319 20.1862C32.09 20.3168 32.0037 20.497 31.991 20.6894C31.991 20.8664 31.996 21.2024 31.998 21.5094H30.038C29.313 21.5094 28.584 21.5094 27.97 21.5094L27.925 16.0274C27.9241 15.9258 27.9025 15.8253 27.8617 15.7322C27.8208 15.6391 27.7614 15.5553 27.6872 15.4858C27.6129 15.4164 27.5253 15.3627 27.4297 15.3281C27.3341 15.2935 27.2325 15.2786 27.131 15.2844C26.922 15.2964 26.717 15.3034 26.514 15.3104C26.0398 15.316 25.5664 15.3524 25.0969 15.4194C24.642 15.5124 24.2176 15.7176 23.8622 16.0164C23.5068 16.3152 23.2316 16.6982 23.062 17.1304C22.3531 18.5924 21.6479 20.0544 20.9769 21.5304C21.0009 21.5684 20.977 21.5774 20.901 21.5734C19.628 21.5524 18.567 21.5434 17.458 21.6024C16.3675 21.6179 15.3263 22.0602 14.5581 22.8344C14.3391 23.0978 14.1784 23.4045 14.0862 23.7343C13.994 24.0641 13.9725 24.4097 14.0231 24.7484C14.24 26.4404 15.9361 27.2094 17.4221 27.2094ZM31.922 23.0094C31.633 24.6914 30.5 25.5914 28.605 25.6254C24.689 25.6964 20.7551 25.7074 17.4221 25.7094C16.7111 25.7094 15.622 25.4034 15.51 24.5574C15.4858 24.4234 15.4911 24.2856 15.5257 24.1538C15.5602 24.0221 15.6232 23.8994 15.71 23.7944C16.2094 23.3391 16.8622 23.089 17.5379 23.0944C18.5989 23.0374 19.6381 23.0464 20.876 23.0674C21.1863 23.0892 21.4956 23.0117 21.7589 22.8462C22.0223 22.6806 22.2262 22.4355 22.3411 22.1464C23.008 20.6784 23.707 19.2274 24.412 17.7784C24.754 17.0724 25.089 16.9334 25.342 16.8914C25.7026 16.8416 26.066 16.8142 26.43 16.8094L26.475 22.2634C26.4766 22.4613 26.5563 22.6505 26.6968 22.7899C26.8373 22.9292 27.0271 23.0074 27.225 23.0074C27.935 23.0074 28.987 23.0074 30.025 23.0074C30.697 23.0094 31.35 23.0094 31.926 23.0094H31.922Z" fill="#949494"/>
<path d="M16.9978 32.7168H30.5078C30.7067 32.7168 30.8975 32.6378 31.0381 32.4971C31.1788 32.3565 31.2578 32.1657 31.2578 31.9668C31.2578 31.7679 31.1788 31.5771 31.0381 31.4365C30.8975 31.2958 30.7067 31.2168 30.5078 31.2168H16.9978C16.7989 31.2168 16.6082 31.2958 16.4675 31.4365C16.3269 31.5771 16.2478 31.7679 16.2478 31.9668C16.2478 32.1657 16.3269 32.3565 16.4675 32.4971C16.6082 32.6378 16.7989 32.7168 16.9978 32.7168Z" fill="#949494"/>
</symbol>
<symbol id="engine-destinationflight-icon" viewBox="0 0 48 48" fill="none">
<path fill-rule="evenodd" clip-rule="evenodd" d="M21.0117 23.3064C21.0117 21.5183 22.4607 20.0693 24.2487 20.0693C26.036 20.0693 27.4848 21.5185 27.4848 23.3064C27.4848 25.0934 26.0358 26.5424 24.2487 26.5424C22.4609 26.5424 21.0117 25.0936 21.0117 23.3064ZM24.2487 21.5693C23.2891 21.5693 22.5117 22.3468 22.5117 23.3064C22.5117 24.2648 23.2889 25.0424 24.2487 25.0424C25.2073 25.0424 25.9848 24.265 25.9848 23.3064C25.9848 22.3466 25.2072 21.5693 24.2487 21.5693Z" fill="#949494"/>
<path fill-rule="evenodd" clip-rule="evenodd" d="M24.2518 16C20.5719 16 17.426 19.3277 17.5422 23.074C17.625 25.7455 19.3266 28.2359 21.1326 30.1225C22.0228 31.0523 22.9097 31.8057 23.5746 32.3266C23.8444 32.538 24.0767 32.7104 24.2566 32.84C24.4356 32.7137 24.6663 32.5458 24.934 32.3397C25.598 31.8286 26.4839 31.0872 27.373 30.1658C29.1748 28.2986 30.8787 25.8078 30.9622 23.0743C31.0767 19.3276 27.9314 16 24.2518 16ZM24.2518 33.7499C23.8424 34.3784 23.8422 34.3782 23.842 34.3781L23.8397 34.3766L23.8344 34.3731L23.8159 34.3609C23.8002 34.3505 23.7778 34.3355 23.7492 34.316C23.6918 34.2772 23.6094 34.2205 23.5053 34.1468C23.2973 33.9995 23.0026 33.784 22.6495 33.5074C21.9444 32.9549 21.0008 32.1539 20.0491 31.1598C18.1714 29.1983 16.1434 26.3624 16.0429 23.1204C15.9016 18.5623 19.6913 14.5 24.2518 14.5C28.8123 14.5 32.6007 18.5623 32.4615 23.1201C32.3607 26.4213 30.3345 29.2569 28.4524 31.2074C27.4995 32.1948 26.5549 32.985 25.8489 33.5284C25.4954 33.8005 25.2002 34.0119 24.9918 34.1562C24.8876 34.2284 24.8049 34.284 24.7474 34.322C24.7187 34.341 24.6962 34.3557 24.6804 34.3659L24.6618 34.3779L24.6564 34.3814L24.6547 34.3825C24.6545 34.3826 24.6537 34.3831 24.2518 33.7499ZM24.2518 33.7499L24.6537 34.3831L24.2465 34.6416L23.842 34.3781L24.2518 33.7499Z" fill="#949494"/>

</symbol>

<symbol id="engine-departurecalendar-icon" viewBox="0 0 48 48" fill="none">
<path fill-rule="evenodd" clip-rule="evenodd" d="M19.5859 21.6035C19.5859 21.1893 19.9217 20.8535 20.3359 20.8535H28.832C29.2462 20.8535 29.582 21.1893 29.582 21.6035C29.582 22.0177 29.2462 22.3535 28.832 22.3535H20.3359C19.9217 22.3535 19.5859 22.0177 19.5859 21.6035Z" fill="#949494"/>
<path fill-rule="evenodd" clip-rule="evenodd" d="M28.2227 14.25C28.6369 14.25 28.9727 14.5858 28.9727 15V17.5764C28.9727 17.9906 28.6369 18.3264 28.2227 18.3264C27.8085 18.3264 27.4727 17.9906 27.4727 17.5764V15C27.4727 14.5858 27.8085 14.25 28.2227 14.25Z" fill="#949494"/>
<path fill-rule="evenodd" clip-rule="evenodd" d="M20.9531 14.25C21.3673 14.25 21.7031 14.5858 21.7031 15V17.5764C21.7031 17.9906 21.3673 18.3264 20.9531 18.3264C20.5389 18.3264 20.2031 17.9906 20.2031 17.5764V15C20.2031 14.5858 20.5389 14.25 20.9531 14.25Z" fill="#949494"/>
<path fill-rule="evenodd" clip-rule="evenodd" d="M17.1232 16.9526C18.0422 16.079 19.3213 15.6719 20.7781 15.6719H28.3985C29.8586 15.6719 31.1384 16.0787 32.0561 16.9532C32.9794 17.8333 33.4386 19.094 33.4344 20.6013C33.4344 20.6011 33.4344 20.6015 33.4344 20.6013V28.8137C33.4344 30.3212 32.9731 31.5831 32.0497 32.4646C31.1316 33.341 29.8519 33.7504 28.3907 33.7504H20.7781C19.3168 33.7504 18.0361 33.3322 17.1179 32.4423C16.196 31.5488 15.7344 30.2716 15.7344 28.7456V20.5998C15.7344 19.0917 16.1984 17.8317 17.1232 16.9526ZM18.1566 18.0398C17.5955 18.5732 17.2344 19.4021 17.2344 20.5998V28.7456C17.2344 29.9683 17.5978 30.8185 18.1619 31.3652C18.7297 31.9156 19.5959 32.2504 20.7781 32.2504H28.3907C29.5808 32.2504 30.448 31.9198 31.0139 31.3796C31.5745 30.8445 31.9344 30.013 31.9344 28.8137V20.5998V20.5977C31.9379 19.3994 31.5798 18.5714 31.0212 18.0391C30.4568 17.5011 29.5897 17.1719 28.3985 17.1719H20.7781C19.5914 17.1719 18.7236 17.5008 18.1566 18.0398Z" fill="#949494"/>
<path fill-rule="evenodd" clip-rule="evenodd" d="M20.4492 27.2607C20.4492 26.8465 20.785 26.5107 21.1992 26.5107H27.9984C28.4126 26.5107 28.7484 26.8465 28.7484 27.2607C28.7484 27.675 28.4126 28.0107 27.9984 28.0107H21.1992C20.785 28.0107 20.4492 27.675 20.4492 27.2607Z" fill="#949494"/>
<path fill-rule="evenodd" clip-rule="evenodd" d="M23.7813 24.8246C24.0637 25.1275 24.047 25.6021 23.744 25.8846L22.2679 27.2605L23.744 28.6364C24.047 28.9188 24.0637 29.3934 23.7813 29.6964C23.4988 29.9994 23.0243 30.0161 22.7213 29.7337L20.6566 27.8091C20.5044 27.6672 20.418 27.4685 20.418 27.2605C20.418 27.0524 20.5044 26.8537 20.6566 26.7119L22.7213 24.7873C23.0243 24.5049 23.4988 24.5216 23.7813 24.8246Z" fill="#949494"/>
</symbol>

<symbol id="engine-returncalendar-icon" viewBox="0 0 48 48" fill="none">
<path fill-rule="evenodd" clip-rule="evenodd" d="M28.4141 21.6035C28.4141 21.1893 28.0783 20.8535 27.6641 20.8535H19.168C18.7538 20.8535 18.418 21.1893 18.418 21.6035C18.418 22.0177 18.7538 22.3535 19.168 22.3535H27.6641C28.0783 22.3535 28.4141 22.0177 28.4141 21.6035Z" fill="#949494"/>
<path fill-rule="evenodd" clip-rule="evenodd" d="M19.7773 14.25C19.3631 14.25 19.0273 14.5858 19.0273 15V17.5764C19.0273 17.9906 19.3631 18.3264 19.7773 18.3264C20.1915 18.3264 20.5273 17.9906 20.5273 17.5764V15C20.5273 14.5858 20.1915 14.25 19.7773 14.25Z" fill="#949494"/>
<path fill-rule="evenodd" clip-rule="evenodd" d="M27.0469 14.25C26.6327 14.25 26.2969 14.5858 26.2969 15V17.5764C26.2969 17.9906 26.6327 18.3264 27.0469 18.3264C27.4611 18.3264 27.7969 17.9906 27.7969 17.5764V15C27.7969 14.5858 27.4611 14.25 27.0469 14.25Z" fill="#949494"/>
<path fill-rule="evenodd" clip-rule="evenodd" d="M30.8768 16.9526C29.9578 16.079 28.6787 15.6719 27.2219 15.6719H19.6015C18.1414 15.6719 16.8616 16.0787 15.9439 16.9532C15.0206 17.8333 14.5614 19.094 14.5656 20.6013C14.5656 20.6011 14.5656 20.6015 14.5656 20.6013V28.8137C14.5656 30.3212 15.0269 31.5831 15.9503 32.4646C16.8684 33.341 18.1481 33.7504 19.6093 33.7504H27.2219C28.6832 33.7504 29.9639 33.3322 30.8821 32.4423C31.804 31.5488 32.2656 30.2716 32.2656 28.7456V20.5998C32.2656 19.0917 31.8016 17.8317 30.8768 16.9526ZM29.8434 18.0398C30.4045 18.5732 30.7656 19.4021 30.7656 20.5998V28.7456C30.7656 29.9683 30.4022 30.8185 29.8381 31.3652C29.2703 31.9156 28.4041 32.2504 27.2219 32.2504H19.6093C18.4192 32.2504 17.552 31.9198 16.9861 31.3796C16.4255 30.8445 16.0656 30.013 16.0656 28.8137V20.5998V20.5977C16.0621 19.3994 16.4202 18.5714 16.9788 18.0391C17.5432 17.5011 18.4103 17.1719 19.6015 17.1719H27.2219C28.4086 17.1719 29.2764 17.5008 29.8434 18.0398Z" fill="#949494"/>
<path fill-rule="evenodd" clip-rule="evenodd" d="M27.5508 27.2607C27.5508 26.8465 27.215 26.5107 26.8008 26.5107H20.0016C19.5874 26.5107 19.2516 26.8465 19.2516 27.2607C19.2516 27.675 19.5874 28.0107 20.0016 28.0107H26.8008C27.215 28.0107 27.5508 27.675 27.5508 27.2607Z" fill="#949494"/>
<path fill-rule="evenodd" clip-rule="evenodd" d="M24.2187 24.8246C23.9363 25.1275 23.953 25.6021 24.256 25.8846L25.7321 27.2605L24.256 28.6364C23.953 28.9188 23.9363 29.3934 24.2187 29.6964C24.5012 29.9994 24.9757 30.0161 25.2787 29.7337L27.3434 27.8091C27.4956 27.6672 27.582 27.4685 27.582 27.2605C27.582 27.0524 27.4956 26.8537 27.3434 26.7119L25.2787 24.7873C24.9757 24.5049 24.5012 24.5216 24.2187 24.8246Z" fill="#949494"/>

</symbol>

<symbol id="engine-passenger-icon" viewBox="0 0 48 48" fill="none">
<path fill-rule="evenodd" clip-rule="evenodd" d="M24.3409 16.75C22.1635 16.75 20.3984 18.5151 20.3984 20.6925C20.3984 22.8699 22.1635 24.635 24.3409 24.635C26.5183 24.635 28.2834 22.8699 28.2834 20.6925C28.2834 18.5151 26.5183 16.75 24.3409 16.75ZM18.8984 20.6925C18.8984 17.6867 21.3351 15.25 24.3409 15.25C27.3467 15.25 29.7834 17.6867 29.7834 20.6925C29.7834 23.6983 27.3467 26.135 24.3409 26.135C21.3351 26.135 18.8984 23.6983 18.8984 20.6925Z" fill="#9A9A9A"/>
<path fill-rule="evenodd" clip-rule="evenodd" d="M17.1194 30.0591C17.1194 27.2197 19.4211 24.918 22.2605 24.918H26.5364C29.3757 24.918 31.6775 27.2197 31.6775 30.0591C31.6775 30.1416 31.6783 30.2253 31.6794 30.3113C31.6988 31.755 30.5153 32.7499 29.18 32.7499H19.6169C18.2815 32.7499 17.0981 31.755 17.1174 30.3113C17.1186 30.2253 17.1194 30.1416 17.1194 30.0591ZM22.2605 26.418C20.2495 26.418 18.6194 28.0481 18.6194 30.0591C18.6194 30.1508 18.6185 30.242 18.6173 30.3314C18.6106 30.8324 19.0072 31.2499 19.6169 31.2499H29.18C29.7896 31.2499 30.1863 30.8324 30.1795 30.3313C30.1784 30.242 30.1775 30.1508 30.1775 30.0591C30.1775 28.0481 28.5473 26.418 26.5364 26.418H22.2605Z" fill="#9A9A9A"/>

</symbol>

<symbol id="engine-down-icon" viewBox="0 0 24 25" fill="none">
<path fill-rule="evenodd" clip-rule="evenodd" d="M12.2499 17.4141L3.83594 9.00006L5.24994 7.58606L12.2499 14.5861L19.2499 7.58606L20.6639 9.00006L12.2499 17.4141Z" fill="#202020"/>
</symbol>

<symbol id="engine-exchange-icon" viewBox="0 0 24 24" fill="none">
<path d="M7.16016 3.83535L7.16016 17.4531" stroke="white" stroke-width="1.5" stroke-linecap="round" stroke-linejoin="round"/>
<path d="M3.08272 7.93164L7.1605 3.83497L11.2383 7.93164" stroke="white" stroke-width="1.5" stroke-linecap="round" stroke-linejoin="round"/>
<path d="M17.0898 20.167L17.0898 6.54921" stroke="white" stroke-width="1.5" stroke-linecap="round" stroke-linejoin="round"/>
<path d="M21.168 16.0708L17.0902 20.1675L13.0124 16.0708" stroke="white" stroke-width="1.5" stroke-linecap="round" stroke-linejoin="round"/>
</symbol>

<symbol id="engine-search-icon" viewBox="0 0 49 48" fill="none">
<path fill-rule="evenodd" clip-rule="evenodd" d="M16.5039 22.5814C16.5039 18.7005 19.6619 15.5435 23.5429 15.5435C27.4229 15.5435 30.5809 18.7005 30.5809 22.5814C30.5809 26.4624 27.4229 29.6204 23.5429 29.6204C19.6619 29.6204 16.5039 26.4624 16.5039 22.5814ZM34.9989 33.0404L30.3999 28.4534C31.7559 26.8724 32.5809 24.8234 32.5809 22.5814C32.5809 17.5985 28.5259 13.5435 23.5429 13.5435C18.5589 13.5435 14.5039 17.5985 14.5039 22.5814C14.5039 27.5654 18.5589 31.6204 23.5429 31.6204C25.5649 31.6204 27.4279 30.9444 28.9349 29.8174L33.5869 34.4564L34.9989 33.0404Z" fill="white"/>
</symbol>
</svg>