<svg xmlns="http://www.w3.org/2000/svg">
    <symbol id="icon-search-zinc" viewBox="0 0 48 48" fill="none">
        <path fill-rule="evenodd" clip-rule="evenodd"
            d="M16.0039 22.5814C16.0039 18.7005 19.1619 15.5435 23.0429 15.5435C26.9229 15.5435 30.0809 18.7005 30.0809 22.5814C30.0809 26.4624 26.9229 29.6204 23.0429 29.6204C19.1619 29.6204 16.0039 26.4624 16.0039 22.5814ZM34.4989 33.0404L29.8999 28.4534C31.2559 26.8724 32.0809 24.8234 32.0809 22.5814C32.0809 17.5985 28.0259 13.5435 23.0429 13.5435C18.0589 13.5435 14.0039 17.5985 14.0039 22.5814C14.0039 27.5654 18.0589 31.6204 23.0429 31.6204C25.0649 31.6204 26.9279 30.9444 28.4349 29.8174L33.0869 34.4564L34.4989 33.0404Z"
            fill="#6D6D6D" />

    </symbol>

    <symbol id="icon-instagram" viewBox="0 0 48 48" fill="none">
        <path fill-rule="evenodd" clip-rule="evenodd"
            d="M15.7402 15.8974C16.7247 14.8412 18.1267 14.25 19.7822 14.25H28.2169C29.8762 14.25 31.2788 14.8408 32.2629 15.8977C33.2413 16.9484 33.75 18.3989 33.75 20.0264V27.9736C33.75 29.6011 33.2413 31.0516 32.2627 32.1024C31.2785 33.1592 29.8756 33.75 28.2159 33.75H19.7822C18.1228 33.75 16.7204 33.1591 15.7366 32.1023C14.7584 31.0515 14.25 29.601 14.25 27.9736V20.0264C14.25 18.3981 14.7612 16.9477 15.7402 15.8974ZM16.8375 16.9201C16.1602 17.6467 15.75 18.7095 15.75 20.0264V27.9736C15.75 29.2914 16.1586 30.3541 16.8345 31.0802C17.5047 31.8003 18.4934 32.25 19.7822 32.25H28.2159C29.5052 32.25 30.4944 31.8002 31.165 31.0801C31.8412 30.354 32.25 29.2913 32.25 27.9736V20.0264C32.25 18.7087 31.8412 17.646 31.1651 16.9198C30.4946 16.1997 29.5056 15.75 28.2169 15.75H19.7822C18.4983 15.75 17.5092 16.1994 16.8375 16.9201Z"
            fill="#6D6D6D" />
        <path fill-rule="evenodd" clip-rule="evenodd"
            d="M23.8464 21.5781C22.3263 21.5781 21.0937 22.8108 21.0937 24.3308C21.0937 25.8509 22.3263 27.0835 23.8464 27.0835C25.3665 27.0835 26.5992 25.8509 26.5992 24.3308C26.5992 22.8108 25.3665 21.5781 23.8464 21.5781ZM19.5938 24.3308C19.5938 21.9823 21.498 20.0781 23.8464 20.0781C26.1949 20.0781 28.0991 21.9823 28.0991 24.3308C28.0991 26.6793 26.1949 28.5835 23.8464 28.5835C21.498 28.5835 19.5938 26.6793 19.5938 24.3308Z"
            fill="#6D6D6D" />
        <path fill-rule="evenodd" clip-rule="evenodd"
            d="M27.8281 19.3787C27.8281 18.8076 28.2918 18.3438 28.8631 18.3438C29.4377 18.3438 29.8971 18.811 29.8971 19.3787C29.8971 19.95 29.4343 20.4128 28.8631 20.4128C28.2952 20.4128 27.8281 19.9533 27.8281 19.3787Z"
            fill="#6D6D6D" />
    </symbol>

    <symbol id="icon-white-phone" viewBox="0 0 25 24" fill="none">
        <path
            d="M17.7827 21.75C15.4107 21.75 12.3227 19.865 8.60566 16.15C4.87266 12.417 2.98666 9.319 3.00066 6.943C2.99096 6.43846 3.08845 5.93761 3.28669 5.47356C3.48493 5.0095 3.77941 4.5928 4.15066 4.251C4.16766 4.23 4.22066 4.179 4.23966 4.16C5.60466 2.792 6.50466 2.25 7.45066 2.25C8.52566 2.264 9.28366 3.062 10.2447 4.071C10.4797 4.319 10.7357 4.588 11.0207 4.871C11.5104 5.31625 11.833 5.91562 11.9351 6.56957C12.0371 7.22353 11.9124 7.89271 11.5817 8.466C11.1697 9.519 10.8147 10.427 12.5697 12.182C14.3257 13.937 15.2327 13.582 16.2847 13.167C16.8577 12.8364 17.5266 12.7116 18.1804 12.8135C18.8341 12.9154 19.4333 13.2377 19.8787 13.727C20.1587 14.007 20.4247 14.26 20.6697 14.493C21.6847 15.458 22.4857 16.221 22.4997 17.293C22.5107 18.209 21.9587 19.14 20.5937 20.505L20.5007 20.594C20.1587 20.9651 19.742 21.2595 19.278 21.4577C18.814 21.6559 18.3132 21.7535 17.8087 21.744L17.7827 21.75ZM5.30366 5.216C5.30366 5.216 5.25766 5.265 5.19666 5.325C4.96851 5.52883 4.78765 5.78005 4.66674 6.06109C4.54582 6.34213 4.48778 6.64619 4.49666 6.952C4.48866 8.3 5.37866 10.805 9.66266 15.088C13.9247 19.349 16.4267 20.25 17.7777 20.25H17.7957C18.1018 20.2592 18.4063 20.2013 18.6877 20.0803C18.9691 19.9594 19.2206 19.7784 19.4247 19.55C19.4772 19.4951 19.5326 19.443 19.5907 19.394C20.5227 18.456 21.0017 17.758 20.9967 17.316C20.9917 16.874 20.4217 16.329 19.6337 15.579C19.3797 15.338 19.1047 15.079 18.8147 14.787C18.0937 14.066 17.6977 14.223 16.8297 14.563C15.6147 15.04 13.9547 15.689 11.5067 13.242C9.05766 10.794 9.70666 9.132 10.1817 7.919C10.5217 7.049 10.6817 6.652 9.95666 5.931C9.66266 5.638 9.39766 5.359 9.15666 5.103C8.41166 4.32 7.87366 3.753 7.43066 3.748C6.98766 3.743 6.29066 4.224 5.29566 5.218L5.30366 5.216Z"
            fill="white" />
    </symbol>

    <symbol id="flight-search-icon-active" viewBox="0 0 24 25" fill="none">
        <path fill-rule="evenodd" clip-rule="evenodd"
            d="M21.657 11.4027C21.4611 10.7067 21.035 10.1737 20.426 9.86071C19.251 9.25671 17.849 9.6527 17.301 9.8507C16.213 10.2437 15.164 10.7047 14.071 11.1467C12.856 10.0217 11.621 8.93671 10.468 7.93171C9.64207 7.20971 8.79407 6.94471 7.94107 7.14871C7.49807 7.25671 7.07907 7.41771 6.67407 7.57271C6.46807 7.65271 6.25807 7.73271 6.04207 7.80771C5.84607 7.87471 5.68807 8.01971 5.60307 8.20771C5.51807 8.39671 5.51407 8.6117 5.59307 8.8027L7.66307 13.8217C6.94907 14.1217 6.07207 14.4937 5.24507 14.8447L4.00007 15.3727C3.87707 15.0747 3.74407 14.7547 3.69507 14.6327C3.53707 14.2507 3.10107 14.0647 2.71707 14.2227C2.33307 14.3797 2.14907 14.8177 2.30607 15.2007C2.39607 15.4217 2.75507 16.2857 2.84907 16.5107C2.86807 16.5557 2.88807 16.5997 2.90707 16.6437L2.90907 16.6467C2.91507 16.6607 2.92107 16.6747 2.92807 16.6887C3.81607 18.6317 5.29407 19.6617 7.08407 19.6617C7.76007 19.6617 8.48207 19.5137 9.23307 19.2127C12.532 17.8957 15.699 16.5717 19.501 14.9757C20.858 14.3947 22.113 13.0277 21.657 11.4027Z"
            fill="white" />
    </symbol>

    <symbol id="flight-search-icon" viewBox="0 0 24 25" fill="none">
        <path fill-rule="evenodd" clip-rule="evenodd"
            d="M21.657 11.4027C21.4611 10.7067 21.035 10.1737 20.426 9.86071C19.251 9.25671 17.849 9.6527 17.301 9.8507C16.213 10.2437 15.164 10.7047 14.071 11.1467C12.856 10.0217 11.621 8.93671 10.468 7.93171C9.64207 7.20971 8.79407 6.94471 7.94107 7.14871C7.49807 7.25671 7.07907 7.41771 6.67407 7.57271C6.46807 7.65271 6.25807 7.73271 6.04207 7.80771C5.84607 7.87471 5.68807 8.01971 5.60307 8.20771C5.51807 8.39671 5.51407 8.6117 5.59307 8.8027L7.66307 13.8217C6.94907 14.1217 6.07207 14.4937 5.24507 14.8447L4.00007 15.3727C3.87707 15.0747 3.74407 14.7547 3.69507 14.6327C3.53707 14.2507 3.10107 14.0647 2.71707 14.2227C2.33307 14.3797 2.14907 14.8177 2.30607 15.2007C2.39607 15.4217 2.75507 16.2857 2.84907 16.5107C2.86807 16.5557 2.88807 16.5997 2.90707 16.6437L2.90907 16.6467C2.91507 16.6607 2.92107 16.6747 2.92807 16.6887C3.81607 18.6317 5.29407 19.6617 7.08407 19.6617C7.76007 19.6617 8.48207 19.5137 9.23307 19.2127C12.532 17.8957 15.699 16.5717 19.501 14.9757C20.858 14.3947 22.113 13.0277 21.657 11.4027Z"
            fill="#626262" />
    </symbol>

    <symbol id="hotel-search-icon" viewBox="0 0 24 25" fill="none">
        <path fill-rule="evenodd" clip-rule="evenodd"
            d="M4.62109 11.1431H6.83909C6.94954 11.1431 7.03854 11.0535 7.03761 10.9431C7.03538 10.6766 7.03865 10.4043 7.12609 10.1531C7.28009 9.72606 7.60909 9.39706 8.03109 9.24606C8.27809 9.15706 8.52709 9.15706 8.97909 9.15706H9.59909C10.0521 9.15706 10.3021 9.15706 10.5481 9.24706C10.9691 9.39706 11.2981 9.72606 11.4501 10.1471C11.5383 10.4007 11.5424 10.6745 11.5405 10.9431C11.5397 11.0535 11.6287 11.1431 11.7391 11.1431H12.3391C12.4496 11.1431 12.5386 11.0535 12.5377 10.9431C12.5354 10.6766 12.5387 10.4043 12.6261 10.1531C12.7801 9.72606 13.1091 9.39706 13.5311 9.24606C13.7781 9.15706 14.0271 9.15706 14.4791 9.15706H15.0991C15.5521 9.15706 15.8021 9.15706 16.0481 9.24706C16.4691 9.39706 16.7981 9.72606 16.9501 10.1471C17.0383 10.4007 17.0424 10.6745 17.0405 10.9431C17.0397 11.0535 17.1287 11.1431 17.2391 11.1431H19.4581C19.7351 11.1431 19.9581 10.9191 19.9581 10.6431V7.42906C19.9581 6.65806 19.9581 6.27106 19.8261 5.90306C19.5981 5.27106 19.1041 4.77906 18.4801 4.55606C18.1061 4.41406 17.7171 4.41406 16.9401 4.41406H7.14009C6.36309 4.41406 5.97409 4.41406 5.61009 4.55306C4.97609 4.77906 4.48209 5.27106 4.25409 5.90306C4.12109 6.27006 4.12109 6.65806 4.12109 7.42906V10.6431C4.12109 10.9191 4.34509 11.1431 4.62109 11.1431Z"
            fill="#626262" />
        <path fill-rule="evenodd" clip-rule="evenodd"
            d="M21.6501 13.6459C21.4171 12.9939 20.9051 12.4759 20.2231 12.2179C19.8421 12.0879 19.4481 12.0879 18.7341 12.0879H5.34206C4.62806 12.0879 4.23506 12.0879 3.83106 12.2269C3.17306 12.4759 2.66206 12.9929 2.42906 13.6409C2.28906 14.0249 2.28906 14.4199 2.28906 15.1379V19.8379C2.28906 20.2519 2.62506 20.5879 3.03906 20.5879C3.45306 20.5879 3.78906 20.2519 3.78906 19.8379V19.5479C3.78906 19.4374 3.87861 19.3479 3.98906 19.3479H20.0891C20.1995 19.3479 20.2891 19.4374 20.2891 19.5479V19.8379C20.2891 20.2519 20.6251 20.5879 21.0391 20.5879C21.4531 20.5879 21.7891 20.2519 21.7891 19.8379V15.1379C21.7891 14.4199 21.7891 14.0249 21.6501 13.6459Z"
            fill="#626262" />

    </symbol>

    <symbol id="hotel-search-icon-active" viewBox="0 0 24 25" fill="none">
        <path fill-rule="evenodd" clip-rule="evenodd"
            d="M4.62109 11.1431H6.83909C6.94954 11.1431 7.03854 11.0535 7.03761 10.9431C7.03538 10.6766 7.03865 10.4043 7.12609 10.1531C7.28009 9.72606 7.60909 9.39706 8.03109 9.24606C8.27809 9.15706 8.52709 9.15706 8.97909 9.15706H9.59909C10.0521 9.15706 10.3021 9.15706 10.5481 9.24706C10.9691 9.39706 11.2981 9.72606 11.4501 10.1471C11.5383 10.4007 11.5424 10.6745 11.5405 10.9431C11.5397 11.0535 11.6287 11.1431 11.7391 11.1431H12.3391C12.4496 11.1431 12.5386 11.0535 12.5377 10.9431C12.5354 10.6766 12.5387 10.4043 12.6261 10.1531C12.7801 9.72606 13.1091 9.39706 13.5311 9.24606C13.7781 9.15706 14.0271 9.15706 14.4791 9.15706H15.0991C15.5521 9.15706 15.8021 9.15706 16.0481 9.24706C16.4691 9.39706 16.7981 9.72606 16.9501 10.1471C17.0383 10.4007 17.0424 10.6745 17.0405 10.9431C17.0397 11.0535 17.1287 11.1431 17.2391 11.1431H19.4581C19.7351 11.1431 19.9581 10.9191 19.9581 10.6431V7.42906C19.9581 6.65806 19.9581 6.27106 19.8261 5.90306C19.5981 5.27106 19.1041 4.77906 18.4801 4.55606C18.1061 4.41406 17.7171 4.41406 16.9401 4.41406H7.14009C6.36309 4.41406 5.97409 4.41406 5.61009 4.55306C4.97609 4.77906 4.48209 5.27106 4.25409 5.90306C4.12109 6.27006 4.12109 6.65806 4.12109 7.42906V10.6431C4.12109 10.9191 4.34509 11.1431 4.62109 11.1431Z"
            fill="#ffffff" />
        <path fill-rule="evenodd" clip-rule="evenodd"
            d="M21.6501 13.6459C21.4171 12.9939 20.9051 12.4759 20.2231 12.2179C19.8421 12.0879 19.4481 12.0879 18.7341 12.0879H5.34206C4.62806 12.0879 4.23506 12.0879 3.83106 12.2269C3.17306 12.4759 2.66206 12.9929 2.42906 13.6409C2.28906 14.0249 2.28906 14.4199 2.28906 15.1379V19.8379C2.28906 20.2519 2.62506 20.5879 3.03906 20.5879C3.45306 20.5879 3.78906 20.2519 3.78906 19.8379V19.5479C3.78906 19.4374 3.87861 19.3479 3.98906 19.3479H20.0891C20.1995 19.3479 20.2891 19.4374 20.2891 19.5479V19.8379C20.2891 20.2519 20.6251 20.5879 21.0391 20.5879C21.4531 20.5879 21.7891 20.2519 21.7891 19.8379V15.1379C21.7891 14.4199 21.7891 14.0249 21.6501 13.6459Z"
            fill="#ffffff" />
    </symbol>

    <symbol id="flighthotel-search-icon" viewBox="0 0 25 25" fill="none">
<path fill-rule="evenodd" clip-rule="evenodd" d="M16.657 17.6211C16.657 18.0351 16.321 18.3711 15.907 18.3711C15.493 18.3711 15.157 18.0351 15.157 17.6211V12.4411C15.157 12.0271 15.493 11.6911 15.907 11.6911C16.321 11.6911 16.657 12.0271 16.657 12.4411V17.6211ZM14.784 8.40109H10.216V6.00109C10.216 5.51609 10.61 5.12109 11.095 5.12109H13.904C14.389 5.12109 14.784 5.51609 14.784 6.00109V8.40109ZM13.251 17.6211C13.251 18.0351 12.915 18.3711 12.501 18.3711C12.087 18.3711 11.751 18.0351 11.751 17.6211V12.4411C11.751 12.0271 12.087 11.6911 12.501 11.6911C12.915 11.6911 13.251 12.0271 13.251 12.4411V17.6211ZM9.851 17.6211C9.851 18.0351 9.515 18.3711 9.101 18.3711C8.687 18.3711 8.351 18.0351 8.351 17.6211V12.4411C8.351 12.0271 8.687 11.6911 9.101 11.6911C9.515 11.6911 9.851 12.0271 9.851 12.4411V17.6211ZM16.284 8.43209V6.00109C16.284 4.68809 15.216 3.62109 13.904 3.62109H11.095C9.783 3.62109 8.716 4.68809 8.716 6.00109V8.43209C6.42 8.59309 5 10.1561 5 12.6211V17.3011C5 19.6391 6.268 21.1731 8.349 21.4681V22.3711C8.349 22.7851 8.685 23.1211 9.099 23.1211C9.513 23.1211 9.849 22.7851 9.849 22.3711V21.5311H15.155V22.3711C15.155 22.7851 15.491 23.1211 15.905 23.1211C16.319 23.1211 16.655 22.7851 16.655 22.3711V21.4681C18.733 21.1731 19.998 19.6421 19.998 17.3101V12.6211C19.998 10.1551 18.579 8.59209 16.284 8.43209Z" fill="#626262"/>

    </symbol>

        <symbol id="flighthotel-search-icon-active" viewBox="0 0 25 25" fill="none">
<path fill-rule="evenodd" clip-rule="evenodd" d="M16.657 17.6211C16.657 18.0351 16.321 18.3711 15.907 18.3711C15.493 18.3711 15.157 18.0351 15.157 17.6211V12.4411C15.157 12.0271 15.493 11.6911 15.907 11.6911C16.321 11.6911 16.657 12.0271 16.657 12.4411V17.6211ZM14.784 8.40109H10.216V6.00109C10.216 5.51609 10.61 5.12109 11.095 5.12109H13.904C14.389 5.12109 14.784 5.51609 14.784 6.00109V8.40109ZM13.251 17.6211C13.251 18.0351 12.915 18.3711 12.501 18.3711C12.087 18.3711 11.751 18.0351 11.751 17.6211V12.4411C11.751 12.0271 12.087 11.6911 12.501 11.6911C12.915 11.6911 13.251 12.0271 13.251 12.4411V17.6211ZM9.851 17.6211C9.851 18.0351 9.515 18.3711 9.101 18.3711C8.687 18.3711 8.351 18.0351 8.351 17.6211V12.4411C8.351 12.0271 8.687 11.6911 9.101 11.6911C9.515 11.6911 9.851 12.0271 9.851 12.4411V17.6211ZM16.284 8.43209V6.00109C16.284 4.68809 15.216 3.62109 13.904 3.62109H11.095C9.783 3.62109 8.716 4.68809 8.716 6.00109V8.43209C6.42 8.59309 5 10.1561 5 12.6211V17.3011C5 19.6391 6.268 21.1731 8.349 21.4681V22.3711C8.349 22.7851 8.685 23.1211 9.099 23.1211C9.513 23.1211 9.849 22.7851 9.849 22.3711V21.5311H15.155V22.3711C15.155 22.7851 15.491 23.1211 15.905 23.1211C16.319 23.1211 16.655 22.7851 16.655 22.3711V21.4681C18.733 21.1731 19.998 19.6421 19.998 17.3101V12.6211C19.998 10.1551 18.579 8.59209 16.284 8.43209Z" fill="#fff"/>

    </symbol>

    <symbol id="tour-search-icon" viewBox="0 0 24 25" fill="none">
<path fill-rule="evenodd" clip-rule="evenodd" d="M9.35718 13.6262C9.09718 13.9562 8.62718 14.0062 8.30718 13.7462L7.51718 13.1162L5.65718 14.1662C5.53718 14.2262 5.41718 14.2562 5.28718 14.2562C5.02718 14.2562 4.77718 14.1262 4.63718 13.8762C4.42718 13.5162 4.55718 13.0562 4.91718 12.8562L6.79718 11.7962L6.75718 11.4062C6.71718 10.9962 7.01718 10.6262 7.42718 10.5862C7.83718 10.5562 8.20718 10.8362 8.25718 11.2562L8.31718 11.8262L9.24718 12.5762C9.56718 12.8362 9.61718 13.3062 9.35718 13.6262ZM11.1672 11.1062C10.9172 8.72619 8.76718 6.99619 6.39718 7.24619C5.23718 7.36619 4.19718 7.92619 3.46718 8.82619C2.73718 9.72619 2.39718 10.8562 2.52718 12.0562C2.52718 12.0562 3.34718 16.2862 3.80718 18.5662C4.16718 20.2862 5.73718 21.5262 7.48718 21.5262C7.61718 21.5262 7.75718 21.5262 7.88718 21.5062C9.82718 21.2962 11.2772 19.6962 11.2672 17.7762C11.2472 15.4662 11.1672 11.1562 11.1672 11.1062Z" fill="#626262"/>
<path fill-rule="evenodd" clip-rule="evenodd" d="M19.2504 11.2266C19.1104 11.4566 18.8704 11.5766 18.6204 11.5766C18.4804 11.5766 18.3404 11.5466 18.2204 11.4666L16.4104 10.3266L15.6004 10.9266C15.2604 11.1666 14.7904 11.0966 14.5504 10.7666C14.3004 10.4266 14.3804 9.95663 14.7104 9.71663L15.6704 9.00663L15.7604 8.42663C15.8204 8.01663 16.2004 7.73663 16.6104 7.79663C17.0204 7.86663 17.3104 8.24663 17.2404 8.65663L17.1804 9.04663L19.0204 10.1966C19.3704 10.4166 19.4704 10.8766 19.2504 11.2266ZM17.8004 4.51663C16.6504 4.33663 15.5104 4.62663 14.5704 5.30663C13.6404 5.99663 13.0304 7.00663 12.8504 8.19663C12.8504 8.19663 12.5704 12.5066 12.4504 14.8166C12.3504 16.7366 13.7304 18.3966 15.6604 18.6966C15.8504 18.7266 16.0504 18.7366 16.2404 18.7366C17.9404 18.7366 19.4404 17.6066 19.8604 15.9366C20.4304 13.6866 21.4404 9.50663 21.4504 9.46663C21.8104 7.09663 20.1704 4.87663 17.8004 4.51663Z" fill="#626262"/>

    </symbol>
    <symbol id="tour-search-icon-active" viewBox="0 0 24 25" fill="none">
<path fill-rule="evenodd" clip-rule="evenodd" d="M9.35718 13.6262C9.09718 13.9562 8.62718 14.0062 8.30718 13.7462L7.51718 13.1162L5.65718 14.1662C5.53718 14.2262 5.41718 14.2562 5.28718 14.2562C5.02718 14.2562 4.77718 14.1262 4.63718 13.8762C4.42718 13.5162 4.55718 13.0562 4.91718 12.8562L6.79718 11.7962L6.75718 11.4062C6.71718 10.9962 7.01718 10.6262 7.42718 10.5862C7.83718 10.5562 8.20718 10.8362 8.25718 11.2562L8.31718 11.8262L9.24718 12.5762C9.56718 12.8362 9.61718 13.3062 9.35718 13.6262ZM11.1672 11.1062C10.9172 8.72619 8.76718 6.99619 6.39718 7.24619C5.23718 7.36619 4.19718 7.92619 3.46718 8.82619C2.73718 9.72619 2.39718 10.8562 2.52718 12.0562C2.52718 12.0562 3.34718 16.2862 3.80718 18.5662C4.16718 20.2862 5.73718 21.5262 7.48718 21.5262C7.61718 21.5262 7.75718 21.5262 7.88718 21.5062C9.82718 21.2962 11.2772 19.6962 11.2672 17.7762C11.2472 15.4662 11.1672 11.1562 11.1672 11.1062Z" fill="#fff"/>
<path fill-rule="evenodd" clip-rule="evenodd" d="M19.2504 11.2266C19.1104 11.4566 18.8704 11.5766 18.6204 11.5766C18.4804 11.5766 18.3404 11.5466 18.2204 11.4666L16.4104 10.3266L15.6004 10.9266C15.2604 11.1666 14.7904 11.0966 14.5504 10.7666C14.3004 10.4266 14.3804 9.95663 14.7104 9.71663L15.6704 9.00663L15.7604 8.42663C15.8204 8.01663 16.2004 7.73663 16.6104 7.79663C17.0204 7.86663 17.3104 8.24663 17.2404 8.65663L17.1804 9.04663L19.0204 10.1966C19.3704 10.4166 19.4704 10.8766 19.2504 11.2266ZM17.8004 4.51663C16.6504 4.33663 15.5104 4.62663 14.5704 5.30663C13.6404 5.99663 13.0304 7.00663 12.8504 8.19663C12.8504 8.19663 12.5704 12.5066 12.4504 14.8166C12.3504 16.7366 13.7304 18.3966 15.6604 18.6966C15.8504 18.7266 16.0504 18.7366 16.2404 18.7366C17.9404 18.7366 19.4404 17.6066 19.8604 15.9366C20.4304 13.6866 21.4404 9.50663 21.4504 9.46663C21.8104 7.09663 20.1704 4.87663 17.8004 4.51663Z" fill="#fff"/>

    </symbol>

    <symbol id="insurance-search-icon" viewBox="0 0 24 25" fill="none">
        <path fill-rule="evenodd" clip-rule="evenodd"
            d="M15.9601 18.6055C15.5461 18.6055 15.2101 18.9415 15.2101 19.3555C15.2101 20.0335 14.6581 20.5855 13.9801 20.5855C13.3011 20.5855 12.7481 20.0335 12.7481 19.3555V14.6755C12.7481 14.565 12.8376 14.4755 12.9481 14.4755H14.7767C14.8877 14.4755 14.9775 14.3836 14.9756 14.2726C14.8935 9.6236 13.1254 6.7961 12.1467 5.58629C12.0694 5.49079 11.9267 5.49076 11.8494 5.58623C10.8713 6.7945 9.10166 9.62203 9.01956 14.2726C9.0176 14.3836 9.10746 14.4755 9.21847 14.4755H11.0481C11.1585 14.4755 11.2481 14.565 11.2481 14.6755V19.3555C11.2481 20.8605 12.4741 22.0855 13.9801 22.0855C15.4851 22.0855 16.7101 20.8605 16.7101 19.3555C16.7101 18.9415 16.3741 18.6055 15.9601 18.6055Z"
            fill="#626262" />
        <path fill-rule="evenodd" clip-rule="evenodd"
            d="M11.0133 4.25176C11.1401 4.11283 11.0326 3.88275 10.846 3.9062C6.68185 4.42967 3.27094 7.74855 2.52602 12.1942C2.43202 12.7602 2.59302 13.3372 2.96602 13.7782C3.34202 14.2212 3.88902 14.4752 4.46802 14.4752H7.31824C7.42822 14.4752 7.51748 14.3842 7.51921 14.2743C7.60795 8.61207 9.96037 5.40576 11.0133 4.25176Z"
            fill="#626262" />
        <path fill-rule="evenodd" clip-rule="evenodd"
            d="M21.4719 12.1937C20.7269 7.75012 17.3161 4.43136 13.1521 3.90694C12.9654 3.88343 12.8579 4.11356 12.9847 4.25251C14.0375 5.40666 16.3891 8.61294 16.4786 14.2749C16.4804 14.3848 16.5696 14.4757 16.6796 14.4757H19.5309C20.1099 14.4757 20.6579 14.2207 21.0339 13.7767C21.4069 13.3367 21.5669 12.7597 21.4719 12.1937Z"
            fill="#626262" />


    </symbol>

    <symbol id="insurance-search-icon-active" viewBox="0 0 24 25" fill="none">
        <path fill-rule="evenodd" clip-rule="evenodd"
            d="M15.9601 18.6055C15.5461 18.6055 15.2101 18.9415 15.2101 19.3555C15.2101 20.0335 14.6581 20.5855 13.9801 20.5855C13.3011 20.5855 12.7481 20.0335 12.7481 19.3555V14.6755C12.7481 14.565 12.8376 14.4755 12.9481 14.4755H14.7767C14.8877 14.4755 14.9775 14.3836 14.9756 14.2726C14.8935 9.6236 13.1254 6.7961 12.1467 5.58629C12.0694 5.49079 11.9267 5.49076 11.8494 5.58623C10.8713 6.7945 9.10166 9.62203 9.01956 14.2726C9.0176 14.3836 9.10746 14.4755 9.21847 14.4755H11.0481C11.1585 14.4755 11.2481 14.565 11.2481 14.6755V19.3555C11.2481 20.8605 12.4741 22.0855 13.9801 22.0855C15.4851 22.0855 16.7101 20.8605 16.7101 19.3555C16.7101 18.9415 16.3741 18.6055 15.9601 18.6055Z"
            fill="#fff" />
        <path fill-rule="evenodd" clip-rule="evenodd"
            d="M11.0133 4.25176C11.1401 4.11283 11.0326 3.88275 10.846 3.9062C6.68185 4.42967 3.27094 7.74855 2.52602 12.1942C2.43202 12.7602 2.59302 13.3372 2.96602 13.7782C3.34202 14.2212 3.88902 14.4752 4.46802 14.4752H7.31824C7.42822 14.4752 7.51748 14.3842 7.51921 14.2743C7.60795 8.61207 9.96037 5.40576 11.0133 4.25176Z"
            fill="#fff" />
        <path fill-rule="evenodd" clip-rule="evenodd"
            d="M21.4719 12.1937C20.7269 7.75012 17.3161 4.43136 13.1521 3.90694C12.9654 3.88343 12.8579 4.11356 12.9847 4.25251C14.0375 5.40666 16.3891 8.61294 16.4786 14.2749C16.4804 14.3848 16.5696 14.4757 16.6796 14.4757H19.5309C20.1099 14.4757 20.6579 14.2207 21.0339 13.7767C21.4069 13.3367 21.5669 12.7597 21.4719 12.1937Z"
            fill="#fff" />

    </symbol>

    <symbol id="engine-departureflight-icon" viewBox="0 0 48 48" fill="none">
        <path
            d="M17.4221 27.2094H17.4281C20.7661 27.2094 24.709 27.1964 28.636 27.1254C31.671 27.0714 33.49 25.1954 33.5 22.1064C33.5 21.8754 33.493 21.0064 33.491 20.7154C33.485 20.5227 33.405 20.3396 33.2677 20.2042C33.1304 20.0688 32.9462 19.9914 32.7534 19.988C32.5606 19.9847 32.3738 20.0557 32.2319 20.1862C32.09 20.3168 32.0037 20.497 31.991 20.6894C31.991 20.8664 31.996 21.2024 31.998 21.5094H30.038C29.313 21.5094 28.584 21.5094 27.97 21.5094L27.925 16.0274C27.9241 15.9258 27.9025 15.8253 27.8617 15.7322C27.8208 15.6391 27.7614 15.5553 27.6872 15.4858C27.6129 15.4164 27.5253 15.3627 27.4297 15.3281C27.3341 15.2935 27.2325 15.2786 27.131 15.2844C26.922 15.2964 26.717 15.3034 26.514 15.3104C26.0398 15.316 25.5664 15.3524 25.0969 15.4194C24.642 15.5124 24.2176 15.7176 23.8622 16.0164C23.5068 16.3152 23.2316 16.6982 23.062 17.1304C22.3531 18.5924 21.6479 20.0544 20.9769 21.5304C21.0009 21.5684 20.977 21.5774 20.901 21.5734C19.628 21.5524 18.567 21.5434 17.458 21.6024C16.3675 21.6179 15.3263 22.0602 14.5581 22.8344C14.3391 23.0978 14.1784 23.4045 14.0862 23.7343C13.994 24.0641 13.9725 24.4097 14.0231 24.7484C14.24 26.4404 15.9361 27.2094 17.4221 27.2094ZM31.922 23.0094C31.633 24.6914 30.5 25.5914 28.605 25.6254C24.689 25.6964 20.7551 25.7074 17.4221 25.7094C16.7111 25.7094 15.622 25.4034 15.51 24.5574C15.4858 24.4234 15.4911 24.2856 15.5257 24.1538C15.5602 24.0221 15.6232 23.8994 15.71 23.7944C16.2094 23.3391 16.8622 23.089 17.5379 23.0944C18.5989 23.0374 19.6381 23.0464 20.876 23.0674C21.1863 23.0892 21.4956 23.0117 21.7589 22.8462C22.0223 22.6806 22.2262 22.4355 22.3411 22.1464C23.008 20.6784 23.707 19.2274 24.412 17.7784C24.754 17.0724 25.089 16.9334 25.342 16.8914C25.7026 16.8416 26.066 16.8142 26.43 16.8094L26.475 22.2634C26.4766 22.4613 26.5563 22.6505 26.6968 22.7899C26.8373 22.9292 27.0271 23.0074 27.225 23.0074C27.935 23.0074 28.987 23.0074 30.025 23.0074C30.697 23.0094 31.35 23.0094 31.926 23.0094H31.922Z"
            fill="#949494" />
        <path
            d="M16.9978 32.7168H30.5078C30.7067 32.7168 30.8975 32.6378 31.0381 32.4971C31.1788 32.3565 31.2578 32.1657 31.2578 31.9668C31.2578 31.7679 31.1788 31.5771 31.0381 31.4365C30.8975 31.2958 30.7067 31.2168 30.5078 31.2168H16.9978C16.7989 31.2168 16.6082 31.2958 16.4675 31.4365C16.3269 31.5771 16.2478 31.7679 16.2478 31.9668C16.2478 32.1657 16.3269 32.3565 16.4675 32.4971C16.6082 32.6378 16.7989 32.7168 16.9978 32.7168Z"
            fill="#949494" />
    </symbol>
    <symbol id="engine-destinationflight-icon" viewBox="0 0 48 48" fill="none">
        <path fill-rule="evenodd" clip-rule="evenodd"
            d="M21.0117 23.3064C21.0117 21.5183 22.4607 20.0693 24.2487 20.0693C26.036 20.0693 27.4848 21.5185 27.4848 23.3064C27.4848 25.0934 26.0358 26.5424 24.2487 26.5424C22.4609 26.5424 21.0117 25.0936 21.0117 23.3064ZM24.2487 21.5693C23.2891 21.5693 22.5117 22.3468 22.5117 23.3064C22.5117 24.2648 23.2889 25.0424 24.2487 25.0424C25.2073 25.0424 25.9848 24.265 25.9848 23.3064C25.9848 22.3466 25.2072 21.5693 24.2487 21.5693Z"
            fill="#949494" />
        <path fill-rule="evenodd" clip-rule="evenodd"
            d="M24.2518 16C20.5719 16 17.426 19.3277 17.5422 23.074C17.625 25.7455 19.3266 28.2359 21.1326 30.1225C22.0228 31.0523 22.9097 31.8057 23.5746 32.3266C23.8444 32.538 24.0767 32.7104 24.2566 32.84C24.4356 32.7137 24.6663 32.5458 24.934 32.3397C25.598 31.8286 26.4839 31.0872 27.373 30.1658C29.1748 28.2986 30.8787 25.8078 30.9622 23.0743C31.0767 19.3276 27.9314 16 24.2518 16ZM24.2518 33.7499C23.8424 34.3784 23.8422 34.3782 23.842 34.3781L23.8397 34.3766L23.8344 34.3731L23.8159 34.3609C23.8002 34.3505 23.7778 34.3355 23.7492 34.316C23.6918 34.2772 23.6094 34.2205 23.5053 34.1468C23.2973 33.9995 23.0026 33.784 22.6495 33.5074C21.9444 32.9549 21.0008 32.1539 20.0491 31.1598C18.1714 29.1983 16.1434 26.3624 16.0429 23.1204C15.9016 18.5623 19.6913 14.5 24.2518 14.5C28.8123 14.5 32.6007 18.5623 32.4615 23.1201C32.3607 26.4213 30.3345 29.2569 28.4524 31.2074C27.4995 32.1948 26.5549 32.985 25.8489 33.5284C25.4954 33.8005 25.2002 34.0119 24.9918 34.1562C24.8876 34.2284 24.8049 34.284 24.7474 34.322C24.7187 34.341 24.6962 34.3557 24.6804 34.3659L24.6618 34.3779L24.6564 34.3814L24.6547 34.3825C24.6545 34.3826 24.6537 34.3831 24.2518 33.7499ZM24.2518 33.7499L24.6537 34.3831L24.2465 34.6416L23.842 34.3781L24.2518 33.7499Z"
            fill="#949494" />

    </symbol>

    <symbol id="engine-departurecalendar-icon" viewBox="0 0 48 48" fill="none">
        <path fill-rule="evenodd" clip-rule="evenodd"
            d="M19.5859 21.6035C19.5859 21.1893 19.9217 20.8535 20.3359 20.8535H28.832C29.2462 20.8535 29.582 21.1893 29.582 21.6035C29.582 22.0177 29.2462 22.3535 28.832 22.3535H20.3359C19.9217 22.3535 19.5859 22.0177 19.5859 21.6035Z"
            fill="#949494" />
        <path fill-rule="evenodd" clip-rule="evenodd"
            d="M28.2227 14.25C28.6369 14.25 28.9727 14.5858 28.9727 15V17.5764C28.9727 17.9906 28.6369 18.3264 28.2227 18.3264C27.8085 18.3264 27.4727 17.9906 27.4727 17.5764V15C27.4727 14.5858 27.8085 14.25 28.2227 14.25Z"
            fill="#949494" />
        <path fill-rule="evenodd" clip-rule="evenodd"
            d="M20.9531 14.25C21.3673 14.25 21.7031 14.5858 21.7031 15V17.5764C21.7031 17.9906 21.3673 18.3264 20.9531 18.3264C20.5389 18.3264 20.2031 17.9906 20.2031 17.5764V15C20.2031 14.5858 20.5389 14.25 20.9531 14.25Z"
            fill="#949494" />
        <path fill-rule="evenodd" clip-rule="evenodd"
            d="M17.1232 16.9526C18.0422 16.079 19.3213 15.6719 20.7781 15.6719H28.3985C29.8586 15.6719 31.1384 16.0787 32.0561 16.9532C32.9794 17.8333 33.4386 19.094 33.4344 20.6013C33.4344 20.6011 33.4344 20.6015 33.4344 20.6013V28.8137C33.4344 30.3212 32.9731 31.5831 32.0497 32.4646C31.1316 33.341 29.8519 33.7504 28.3907 33.7504H20.7781C19.3168 33.7504 18.0361 33.3322 17.1179 32.4423C16.196 31.5488 15.7344 30.2716 15.7344 28.7456V20.5998C15.7344 19.0917 16.1984 17.8317 17.1232 16.9526ZM18.1566 18.0398C17.5955 18.5732 17.2344 19.4021 17.2344 20.5998V28.7456C17.2344 29.9683 17.5978 30.8185 18.1619 31.3652C18.7297 31.9156 19.5959 32.2504 20.7781 32.2504H28.3907C29.5808 32.2504 30.448 31.9198 31.0139 31.3796C31.5745 30.8445 31.9344 30.013 31.9344 28.8137V20.5998V20.5977C31.9379 19.3994 31.5798 18.5714 31.0212 18.0391C30.4568 17.5011 29.5897 17.1719 28.3985 17.1719H20.7781C19.5914 17.1719 18.7236 17.5008 18.1566 18.0398Z"
            fill="#949494" />
        <path fill-rule="evenodd" clip-rule="evenodd"
            d="M20.4492 27.2607C20.4492 26.8465 20.785 26.5107 21.1992 26.5107H27.9984C28.4126 26.5107 28.7484 26.8465 28.7484 27.2607C28.7484 27.675 28.4126 28.0107 27.9984 28.0107H21.1992C20.785 28.0107 20.4492 27.675 20.4492 27.2607Z"
            fill="#949494" />
        <path fill-rule="evenodd" clip-rule="evenodd"
            d="M23.7813 24.8246C24.0637 25.1275 24.047 25.6021 23.744 25.8846L22.2679 27.2605L23.744 28.6364C24.047 28.9188 24.0637 29.3934 23.7813 29.6964C23.4988 29.9994 23.0243 30.0161 22.7213 29.7337L20.6566 27.8091C20.5044 27.6672 20.418 27.4685 20.418 27.2605C20.418 27.0524 20.5044 26.8537 20.6566 26.7119L22.7213 24.7873C23.0243 24.5049 23.4988 24.5216 23.7813 24.8246Z"
            fill="#949494" />
    </symbol>

    <symbol id="engine-returncalendar-icon" viewBox="0 0 48 48" fill="none">
        <path fill-rule="evenodd" clip-rule="evenodd"
            d="M28.4141 21.6035C28.4141 21.1893 28.0783 20.8535 27.6641 20.8535H19.168C18.7538 20.8535 18.418 21.1893 18.418 21.6035C18.418 22.0177 18.7538 22.3535 19.168 22.3535H27.6641C28.0783 22.3535 28.4141 22.0177 28.4141 21.6035Z"
            fill="#949494" />
        <path fill-rule="evenodd" clip-rule="evenodd"
            d="M19.7773 14.25C19.3631 14.25 19.0273 14.5858 19.0273 15V17.5764C19.0273 17.9906 19.3631 18.3264 19.7773 18.3264C20.1915 18.3264 20.5273 17.9906 20.5273 17.5764V15C20.5273 14.5858 20.1915 14.25 19.7773 14.25Z"
            fill="#949494" />
        <path fill-rule="evenodd" clip-rule="evenodd"
            d="M27.0469 14.25C26.6327 14.25 26.2969 14.5858 26.2969 15V17.5764C26.2969 17.9906 26.6327 18.3264 27.0469 18.3264C27.4611 18.3264 27.7969 17.9906 27.7969 17.5764V15C27.7969 14.5858 27.4611 14.25 27.0469 14.25Z"
            fill="#949494" />
        <path fill-rule="evenodd" clip-rule="evenodd"
            d="M30.8768 16.9526C29.9578 16.079 28.6787 15.6719 27.2219 15.6719H19.6015C18.1414 15.6719 16.8616 16.0787 15.9439 16.9532C15.0206 17.8333 14.5614 19.094 14.5656 20.6013C14.5656 20.6011 14.5656 20.6015 14.5656 20.6013V28.8137C14.5656 30.3212 15.0269 31.5831 15.9503 32.4646C16.8684 33.341 18.1481 33.7504 19.6093 33.7504H27.2219C28.6832 33.7504 29.9639 33.3322 30.8821 32.4423C31.804 31.5488 32.2656 30.2716 32.2656 28.7456V20.5998C32.2656 19.0917 31.8016 17.8317 30.8768 16.9526ZM29.8434 18.0398C30.4045 18.5732 30.7656 19.4021 30.7656 20.5998V28.7456C30.7656 29.9683 30.4022 30.8185 29.8381 31.3652C29.2703 31.9156 28.4041 32.2504 27.2219 32.2504H19.6093C18.4192 32.2504 17.552 31.9198 16.9861 31.3796C16.4255 30.8445 16.0656 30.013 16.0656 28.8137V20.5998V20.5977C16.0621 19.3994 16.4202 18.5714 16.9788 18.0391C17.5432 17.5011 18.4103 17.1719 19.6015 17.1719H27.2219C28.4086 17.1719 29.2764 17.5008 29.8434 18.0398Z"
            fill="#949494" />
        <path fill-rule="evenodd" clip-rule="evenodd"
            d="M27.5508 27.2607C27.5508 26.8465 27.215 26.5107 26.8008 26.5107H20.0016C19.5874 26.5107 19.2516 26.8465 19.2516 27.2607C19.2516 27.675 19.5874 28.0107 20.0016 28.0107H26.8008C27.215 28.0107 27.5508 27.675 27.5508 27.2607Z"
            fill="#949494" />
        <path fill-rule="evenodd" clip-rule="evenodd"
            d="M24.2187 24.8246C23.9363 25.1275 23.953 25.6021 24.256 25.8846L25.7321 27.2605L24.256 28.6364C23.953 28.9188 23.9363 29.3934 24.2187 29.6964C24.5012 29.9994 24.9757 30.0161 25.2787 29.7337L27.3434 27.8091C27.4956 27.6672 27.582 27.4685 27.582 27.2605C27.582 27.0524 27.4956 26.8537 27.3434 26.7119L25.2787 24.7873C24.9757 24.5049 24.5012 24.5216 24.2187 24.8246Z"
            fill="#949494" />

    </symbol>

    <symbol id="engine-passenger-icon" viewBox="0 0 48 48" fill="none">
        <path fill-rule="evenodd" clip-rule="evenodd"
            d="M24.3409 16.75C22.1635 16.75 20.3984 18.5151 20.3984 20.6925C20.3984 22.8699 22.1635 24.635 24.3409 24.635C26.5183 24.635 28.2834 22.8699 28.2834 20.6925C28.2834 18.5151 26.5183 16.75 24.3409 16.75ZM18.8984 20.6925C18.8984 17.6867 21.3351 15.25 24.3409 15.25C27.3467 15.25 29.7834 17.6867 29.7834 20.6925C29.7834 23.6983 27.3467 26.135 24.3409 26.135C21.3351 26.135 18.8984 23.6983 18.8984 20.6925Z"
            fill="#9A9A9A" />
        <path fill-rule="evenodd" clip-rule="evenodd"
            d="M17.1194 30.0591C17.1194 27.2197 19.4211 24.918 22.2605 24.918H26.5364C29.3757 24.918 31.6775 27.2197 31.6775 30.0591C31.6775 30.1416 31.6783 30.2253 31.6794 30.3113C31.6988 31.755 30.5153 32.7499 29.18 32.7499H19.6169C18.2815 32.7499 17.0981 31.755 17.1174 30.3113C17.1186 30.2253 17.1194 30.1416 17.1194 30.0591ZM22.2605 26.418C20.2495 26.418 18.6194 28.0481 18.6194 30.0591C18.6194 30.1508 18.6185 30.242 18.6173 30.3314C18.6106 30.8324 19.0072 31.2499 19.6169 31.2499H29.18C29.7896 31.2499 30.1863 30.8324 30.1795 30.3313C30.1784 30.242 30.1775 30.1508 30.1775 30.0591C30.1775 28.0481 28.5473 26.418 26.5364 26.418H22.2605Z"
            fill="#9A9A9A" />

    </symbol>

    <symbol id="engine-down-icon" viewBox="0 0 24 25" fill="none">
        <path fill-rule="evenodd" clip-rule="evenodd"
            d="M12.2499 17.4141L3.83594 9.00006L5.24994 7.58606L12.2499 14.5861L19.2499 7.58606L20.6639 9.00006L12.2499 17.4141Z"
            fill="#202020" />
    </symbol>

    <symbol id="engine-exchange-icon" viewBox="0 0 24 24" fill="none">
        <path d="M7.16016 3.83535L7.16016 17.4531" stroke="white" stroke-width="1.5" stroke-linecap="round"
            stroke-linejoin="round" />
        <path d="M3.08272 7.93164L7.1605 3.83497L11.2383 7.93164" stroke="white" stroke-width="1.5"
            stroke-linecap="round" stroke-linejoin="round" />
        <path d="M17.0898 20.167L17.0898 6.54921" stroke="white" stroke-width="1.5" stroke-linecap="round"
            stroke-linejoin="round" />
        <path d="M21.168 16.0708L17.0902 20.1675L13.0124 16.0708" stroke="white" stroke-width="1.5"
            stroke-linecap="round" stroke-linejoin="round" />
    </symbol>

    <symbol id="engine-search-icon" viewBox="0 0 49 48" fill="none">
        <path fill-rule="evenodd" clip-rule="evenodd"
            d="M16.5039 22.5814C16.5039 18.7005 19.6619 15.5435 23.5429 15.5435C27.4229 15.5435 30.5809 18.7005 30.5809 22.5814C30.5809 26.4624 27.4229 29.6204 23.5429 29.6204C19.6619 29.6204 16.5039 26.4624 16.5039 22.5814ZM34.9989 33.0404L30.3999 28.4534C31.7559 26.8724 32.5809 24.8234 32.5809 22.5814C32.5809 17.5985 28.5259 13.5435 23.5429 13.5435C18.5589 13.5435 14.5039 17.5985 14.5039 22.5814C14.5039 27.5654 18.5589 31.6204 23.5429 31.6204C25.5649 31.6204 27.4279 30.9444 28.9349 29.8174L33.5869 34.4564L34.9989 33.0404Z"
            fill="white" />
    </symbol>

    <symbol id="icon-house" viewBox="0 0 30 30" fill="none">
        <path fill-rule="evenodd" clip-rule="evenodd"
            d="M3.71094 26.2056C3.71094 25.6878 4.13068 25.2681 4.64844 25.2681H27.1484C27.6662 25.2681 28.0859 25.6878 28.0859 26.2056C28.0859 26.7234 27.6662 27.1431 27.1484 27.1431H4.64844C4.13068 27.1431 3.71094 26.7234 3.71094 26.2056Z"
            fill="#F18316" />
        <path fill-rule="evenodd" clip-rule="evenodd"
            d="M14.3136 21.8205L14.3125 21.8261V26.2106C14.3125 26.7284 13.8927 27.1481 13.375 27.1481C12.8572 27.1481 12.4375 26.7284 12.4375 26.2106V21.8261C12.4375 20.7805 13.2915 19.9266 14.337 19.9266H17.4676C18.5127 19.9266 19.3659 20.7814 19.3659 21.8261V26.2106C19.3659 26.7284 18.9461 27.1481 18.4284 27.1481C17.9106 27.1481 17.4909 26.7284 17.4909 26.2106V21.8261L17.4897 21.8204C17.4886 21.8178 17.4862 21.8139 17.4822 21.8099C17.4782 21.8058 17.4743 21.8035 17.472 21.8025L17.4676 21.8016H14.337L14.3314 21.8028C14.3289 21.8039 14.325 21.8061 14.321 21.8101C14.317 21.8141 14.3147 21.818 14.3136 21.8205Z"
            fill="#F18316" />
        <path fill-rule="evenodd" clip-rule="evenodd"
            d="M7.80174 16.7671C7.33064 16.7671 6.94531 17.1488 6.94531 17.6235V26.2087C6.94531 26.7265 6.52559 27.1462 6.00781 27.1462C5.49005 27.1462 5.07031 26.7265 5.07031 26.2087V17.6235C5.07031 16.1058 6.30256 14.8921 7.80174 14.8921H9.21985C9.73761 14.8921 10.1574 15.3117 10.1574 15.8296C10.1574 16.3473 9.73761 16.7671 9.21985 16.7671H7.80174Z"
            fill="#F18316" />
        <path fill-rule="evenodd" clip-rule="evenodd"
            d="M21.6367 15.8296C21.6367 15.3117 22.0565 14.8921 22.5742 14.8921H24.1456C25.6447 14.8921 26.877 16.1058 26.877 17.6235V26.2087C26.877 26.7265 26.4572 27.1462 25.9395 27.1462C25.4217 27.1462 25.002 26.7265 25.002 26.2087V17.6235C25.002 17.1488 24.6167 16.7671 24.1456 16.7671H22.5742C22.0565 16.7671 21.6367 16.3473 21.6367 15.8296Z"
            fill="#F18316" />
        <path fill-rule="evenodd" clip-rule="evenodd"
            d="M14.5436 8.28089C15.3836 7.7929 16.4202 7.79343 17.2604 8.28044L22.1682 11.1339C23.0024 11.6183 23.5145 12.5103 23.5145 13.4724V26.2098C23.5145 26.7275 23.0947 27.1473 22.577 27.1473C22.0592 27.1473 21.6395 26.7275 21.6395 26.2098V13.4724C21.6395 13.177 21.4824 12.9038 21.2271 12.7556L16.3201 9.90261C16.32 9.90255 16.3202 9.90269 16.3201 9.90261C16.0609 9.75256 15.7425 9.75291 15.4856 9.90205C15.4856 9.90209 15.4857 9.902 15.4856 9.90205L10.577 12.7553C10.3218 12.9034 10.1641 13.177 10.1641 13.4724V26.2098C10.1641 26.7275 9.74433 27.1473 9.22656 27.1473C8.7088 27.1473 8.28906 26.7275 8.28906 26.2098V13.4724C8.28906 12.5103 8.80059 11.6186 9.63475 11.1343L14.5436 8.28089Z"
            fill="#F18316" />
        <path fill-rule="evenodd" clip-rule="evenodd"
            d="M14.9609 3.78857C14.9609 3.27081 15.3807 2.85107 15.8984 2.85107H19.5861C20.1038 2.85107 20.5236 3.27081 20.5236 3.78857V6.64304C20.5236 7.1608 20.1038 7.58054 19.5861 7.58054H16.8359V8.85046C16.8359 9.36824 16.4162 9.78796 15.8984 9.78796C15.3807 9.78796 14.9609 9.36824 14.9609 8.85046V3.78857ZM16.8359 5.70554H18.6486V4.72607H16.8359V5.70554Z"
            fill="#F18316" />
        <path fill-rule="evenodd" clip-rule="evenodd"
            d="M15.9041 13.9502C16.6016 13.9502 17.1675 14.5154 17.1675 15.2136C17.1675 15.9108 16.6024 16.4771 15.9041 16.4771C15.2059 16.4771 14.6406 15.9108 14.6406 15.2136C14.6406 14.5154 15.2066 13.9502 15.9041 13.9502Z"
            fill="#F18316" />

    </symbol>

    <symbol id="icon-orange-location" viewBox="0 0 38 38" fill="none">
        <path
            d="M8.16797 16.729C8.16797 24.9851 17.9134 32.875 19.7705 32.875C21.6274 32.875 31.3729 24.9851 31.3729 16.729C31.3729 10.3195 26.1784 5.125 19.7705 5.125C13.3625 5.125 8.16797 10.3195 8.16797 16.729Z"
            stroke="#F18316" stroke-width="2" stroke-linecap="round" stroke-linejoin="round" />
        <path fill-rule="evenodd" clip-rule="evenodd"
            d="M23.6379 16.6337C23.6379 14.4976 21.9068 12.7666 19.7708 12.7666C17.6333 12.7666 15.9023 14.4976 15.9023 16.6337C15.9023 18.7697 17.6333 20.5022 19.7708 20.5022C21.9068 20.5022 23.6379 18.7697 23.6379 16.6337Z"
            stroke="#F18316" stroke-width="2" stroke-linecap="round" stroke-linejoin="round" />

    </symbol>
    <symbol id="icon-orange-telephone" viewBox="0 0 38 38" fill="none">
        <path
            d="M23.4875 34.0312H14.9852C13.2 34.0296 11.4884 33.3198 10.2259 32.0576C8.96344 30.7954 8.25326 29.084 8.25122 27.2988V10.7042C8.25326 8.91901 8.96313 7.20748 10.2252 5.94486C11.4872 4.68223 13.1985 3.9716 14.9837 3.96875H19.3235C19.6301 3.96875 19.9243 4.09056 20.141 4.30741C20.3579 4.52424 20.4797 4.81835 20.4797 5.125C20.4797 5.43165 20.3579 5.72576 20.141 5.94259C19.9243 6.15944 19.6301 6.28125 19.3235 6.28125H14.9837C13.8114 6.28328 12.6877 6.74993 11.8589 7.57903C11.0301 8.4081 10.5638 9.53193 10.5622 10.7042V27.2988C10.5638 28.4711 11.0304 29.5948 11.8596 30.4234C12.6889 31.2521 13.8129 31.718 14.9852 31.7188H23.4875C24.0683 31.7192 24.6435 31.6051 25.18 31.383C25.7166 31.161 26.2042 30.8352 26.6149 30.4245C27.0255 30.014 27.3512 29.5263 27.5732 28.9897C27.7954 28.453 27.9095 27.878 27.909 27.2972V19.0293C27.909 18.7227 28.0308 18.4285 28.2477 18.2116C28.4645 17.9948 28.7586 17.873 29.0653 17.873C29.3719 17.873 29.666 17.9948 29.8828 18.2116C30.0997 18.4285 30.2215 18.7227 30.2215 19.0293V27.2972C30.2217 28.1815 30.0476 29.0574 29.7094 29.8745C29.371 30.6915 28.875 31.434 28.2496 32.0593C27.6243 32.6846 26.8818 33.1807 26.0647 33.519C25.2476 33.8573 24.372 34.0314 23.4875 34.0312Z"
            fill="#F18316" />
        <path
            d="M23.2161 12.5633C22.9094 12.5633 22.6154 12.4415 22.3985 12.2247C22.1816 12.0078 22.0598 11.7137 22.0598 11.4071V8.94043C22.0598 8.63378 22.1816 8.33967 22.3985 8.12282C22.6154 7.90599 22.9094 7.78418 23.2161 7.78418C23.5227 7.78418 23.8169 7.90599 24.0338 8.12282C24.2505 8.33967 24.3723 8.63378 24.3723 8.94043V11.4071C24.3723 11.7137 24.2505 12.0078 24.0338 12.2247C23.8169 12.4415 23.5227 12.5633 23.2161 12.5633Z"
            fill="#F18316" />
        <path
            d="M30.0286 12.5633C29.7219 12.5633 29.4278 12.4415 29.211 12.2247C28.9941 12.0078 28.8723 11.7137 28.8723 11.4071V8.94043C28.8723 8.63378 28.9941 8.33967 29.211 8.12282C29.4278 7.90599 29.7219 7.78418 30.0286 7.78418C30.3352 7.78418 30.6294 7.90599 30.8461 8.12282C31.063 8.33967 31.1848 8.63378 31.1848 8.94043V11.4071C31.1848 11.7137 31.063 12.0078 30.8461 12.2247C30.6294 12.4415 30.3352 12.5633 30.0286 12.5633Z"
            fill="#F18316" />
        <path
            d="M26.6262 14.8404C26.3196 14.8404 26.0254 14.7186 25.8085 14.5017C25.5918 14.2849 25.47 13.9908 25.47 13.6841V6.65723C25.47 6.35057 25.5918 6.05647 25.8085 5.83963C26.0254 5.62278 26.3196 5.50098 26.6262 5.50098C26.9329 5.50098 27.2269 5.62278 27.4438 5.83963C27.6607 6.05647 27.7825 6.35057 27.7825 6.65723V13.6795C27.7831 13.8317 27.7536 13.9825 27.6957 14.1234C27.6379 14.2642 27.5528 14.3923 27.4455 14.5001C27.338 14.608 27.2104 14.6935 27.0698 14.7519C26.9292 14.8103 26.7784 14.8404 26.6262 14.8404Z"
            fill="#F18316" />
        <path
            d="M19.2304 28.802C19.0233 28.8012 18.8182 28.761 18.6261 28.6834C18.3319 28.5621 18.0803 28.3563 17.903 28.092C17.7259 27.8278 17.6309 27.517 17.6301 27.1988C17.6288 26.8772 17.7242 26.5628 17.9041 26.2963C18.0839 26.0299 18.3398 25.8238 18.6384 25.7049C18.8314 25.6332 19.0354 25.5956 19.2412 25.5938C19.5575 25.5964 19.866 25.6926 20.1278 25.8702C20.3896 26.0478 20.5929 26.2989 20.7121 26.5918C20.8313 26.8849 20.8612 27.2066 20.7977 27.5165C20.7343 27.8265 20.5806 28.1108 20.3558 28.3334C20.1315 28.5587 19.8438 28.7104 19.531 28.7682C19.4322 28.789 19.3315 28.8003 19.2304 28.802Z"
            fill="#F18316" />

    </symbol>
    <symbol id="icon-orange-mail" viewBox="0 0 38 38" fill="none">
        <path fill-rule="evenodd" clip-rule="evenodd"
            d="M4.80695 10.5253C5.20777 10.0282 5.93569 9.95008 6.43281 10.3509L16.5422 18.5018C18.0078 19.6641 20.0831 19.6646 21.5491 18.5032L31.5712 10.3539C32.0667 9.95104 32.795 10.0261 33.1978 10.5215C33.6006 11.017 33.5256 11.7452 33.0302 12.1481L22.9926 20.3101C20.683 22.1453 17.4102 22.1451 15.1007 20.3101L15.0942 20.305L4.98133 12.1511C4.48421 11.7503 4.40614 11.0224 4.80695 10.5253Z"
            fill="#F18316" />
        <path fill-rule="evenodd" clip-rule="evenodd"
            d="M14.6713 16.999C15.1411 17.4315 15.1713 18.163 14.7387 18.6327L6.54592 27.5306C6.11337 28.0004 5.3819 28.0306 4.91212 27.598C4.44235 27.1656 4.41218 26.434 4.84472 25.9643L13.0375 17.0664C13.4701 16.5967 14.2015 16.5664 14.6713 16.999ZM23.42 16.9958C23.8922 16.566 24.6236 16.6002 25.0534 17.0723L33.1559 25.9702C33.5859 26.4424 33.5517 27.1736 33.0796 27.6035C32.6074 28.0335 31.8761 27.9993 31.4462 27.5271L23.3437 18.6292C22.9137 18.1571 22.948 17.4258 23.42 16.9958Z"
            fill="#F18316" />
        <path
            d="M25.8306 32.644H12.1652C11.124 32.6585 10.0903 32.4637 9.12565 32.0715C8.16094 31.6795 7.28475 31.0977 6.54894 30.3608C5.70388 29.4865 5.04064 28.4532 4.59765 27.3209C4.15465 26.1885 3.9407 24.9796 3.96819 23.764V14.2411C3.90043 13.1123 4.06171 11.9816 4.44233 10.9168C4.82295 9.85199 5.41503 8.87521 6.18296 8.0452C6.9509 7.2152 7.8788 6.54912 8.91085 6.08704C9.9429 5.62497 11.0578 5.37646 12.1884 5.35645H25.8105C26.9412 5.37646 28.0559 5.62497 29.0881 6.08704C30.1201 6.54912 31.048 7.2152 31.8159 8.0452C32.5838 8.87521 33.176 9.85199 33.5565 10.9168C33.9371 11.9816 34.0985 13.1123 34.0307 14.2411V23.764C34.0573 24.9785 33.8431 26.1864 33.4 27.3177C32.9571 28.4488 32.2943 29.4811 31.4499 30.3546C30.7142 31.0929 29.8378 31.6759 28.8724 32.0692C27.9072 32.4625 26.8727 32.658 25.8306 32.644ZM12.1853 30.3315H25.8275C26.5661 30.3443 27.2998 30.2086 27.9849 29.9323C28.67 29.6562 29.2927 29.245 29.8158 28.7235C30.4449 28.0635 30.9369 27.2854 31.2634 26.4341C31.5899 25.5828 31.7445 24.6754 31.7182 23.764V14.2411C31.7182 10.4332 29.2346 7.66895 25.8105 7.66895H12.1884C8.76431 7.66895 6.28069 10.4332 6.28069 14.2411V23.764C6.25516 24.6743 6.41011 25.5807 6.73662 26.4309C7.06315 27.281 7.55475 28.0581 8.18311 28.7173C8.70584 29.2386 9.32795 29.6494 10.0125 29.9257C10.6971 30.202 11.4302 30.3378 12.1683 30.3253L12.1853 30.3315Z"
            fill="#F18316" />


    </symbol>
    <symbol id="icon-orange-left-arrow" viewBox="0 0 21 20" fill="none">
        <path
            d="M5.14645 9.64645C4.95118 9.84171 4.95118 10.1583 5.14645 10.3536L8.32843 13.5355C8.52369 13.7308 8.84027 13.7308 9.03553 13.5355C9.2308 13.3403 9.2308 13.0237 9.03553 12.8284L6.20711 10L9.03553 7.17157C9.2308 6.97631 9.2308 6.65973 9.03553 6.46447C8.84027 6.2692 8.52369 6.2692 8.32843 6.46447L5.14645 9.64645ZM15.5 10V9.5L5.5 9.5V10V10.5L15.5 10.5V10Z"
            fill="#F18316" />

    </symbol>
        <symbol id="icon-white-left-arrow" viewBox="0 0 21 20" fill="none">
        <path
            d="M5.14645 9.64645C4.95118 9.84171 4.95118 10.1583 5.14645 10.3536L8.32843 13.5355C8.52369 13.7308 8.84027 13.7308 9.03553 13.5355C9.2308 13.3403 9.2308 13.0237 9.03553 12.8284L6.20711 10L9.03553 7.17157C9.2308 6.97631 9.2308 6.65973 9.03553 6.46447C8.84027 6.2692 8.52369 6.2692 8.32843 6.46447L5.14645 9.64645ZM15.5 10V9.5L5.5 9.5V10V10.5L15.5 10.5V10Z"
            fill="#fff" />

    </symbol>
    

    <symbol id="icon-aparat" viewBox="0 0 49 49" fill="none">
        <path fill-rule="evenodd" clip-rule="evenodd"
            d="M29.434 22.9671C29.3236 23.3823 29.0596 23.7267 28.6888 23.9403C28.4452 24.0783 28.1764 24.1491 27.904 24.1491C27.76 24.1491 27.616 24.1299 27.4744 24.0915C27.0676 23.9859 26.7232 23.7255 26.5096 23.3583C26.2936 22.9899 26.236 22.5567 26.3476 22.1415C26.572 21.292 27.4516 20.7808 28.3036 21.0028L28.3096 21.004C29.1568 21.2416 29.6608 22.1211 29.434 22.9671ZM28.0024 28.3083C27.8116 29.0223 27.16 29.4965 26.4496 29.4965C26.3164 29.4965 26.182 29.4807 26.0476 29.4449C25.1944 29.2073 24.688 28.3277 24.9148 27.4817C25.0276 27.0665 25.2964 26.7207 25.6696 26.5083C26.038 26.2983 26.4652 26.2431 26.8732 26.3573C27.2824 26.4639 27.6268 26.7267 27.8416 27.0951C28.0576 27.4683 28.1128 27.8979 28.0024 28.3083ZM24.088 21.5403C23.9752 21.9543 23.7076 22.2999 23.3332 22.5123C23.0908 22.6503 22.822 22.7211 22.552 22.7211C22.4092 22.7211 22.2676 22.7019 22.1284 22.6635C21.7216 22.5569 21.3773 22.2939 21.1625 21.9255C20.9477 21.5535 20.89 21.1228 21.0016 20.7112C21.226 19.8616 22.0984 19.3552 22.9576 19.576L22.9612 19.5772C23.8096 19.8136 24.3148 20.6932 24.088 21.5403ZM22.6564 26.8791C22.4656 27.5931 21.8141 28.0683 21.1061 28.0683C20.9717 28.0683 20.8372 28.0515 20.7016 28.0167C19.8484 27.7803 19.342 26.8983 19.5688 26.0523C19.6804 25.6383 19.9457 25.2915 20.3165 25.0803C20.6849 24.8679 21.1121 24.8151 21.5273 24.9291C21.9377 25.0359 22.2808 25.2963 22.4956 25.6623C22.7092 26.0331 22.7668 26.4639 22.6564 26.8791ZM26.7592 16.0936C24.5092 15.4924 22.1596 15.7984 20.1424 16.9624C18.1252 18.1264 16.6841 20.0056 16.0817 22.2555C15.4793 24.5079 15.7889 26.8599 16.9565 28.8771C18.1205 30.8907 20.0009 32.3285 22.246 32.9261C22.9996 33.1289 23.7628 33.2297 24.5224 33.2297C26.0308 33.2297 27.52 32.8337 28.8616 32.0595C30.8776 30.8955 32.32 29.0165 32.9236 26.7653C33.526 24.5129 33.2152 22.1607 32.0488 20.1424C30.8836 18.13 29.0056 16.6924 26.7592 16.0936Z"
            fill="#B8B8B8" />
        <path fill-rule="evenodd" clip-rule="evenodd"
            d="M32.3215 31.8596C31.8343 31.7288 31.3471 32.018 31.2187 32.4957C30.8515 33.8661 29.4331 34.6808 28.0603 34.3196C27.5815 34.1888 27.0883 34.4793 26.9599 34.9581C26.8327 35.438 27.1183 35.9312 27.5983 36.0585C27.9739 36.1581 28.3507 36.206 28.7227 36.206C30.6583 36.206 32.4355 34.9136 32.9575 32.9625C33.0871 32.4825 32.8003 31.988 32.3215 31.8596Z"
            fill="#B8B8B8" />
        <path fill-rule="evenodd" clip-rule="evenodd"
            d="M16.5087 31.2274C15.8451 31.0522 15.2907 30.6262 14.9463 30.0322C14.6007 29.4346 14.5083 28.7386 14.6871 28.0702C14.8167 27.5902 14.5311 27.097 14.0511 26.9674C13.5627 26.8414 13.0779 27.1258 12.9483 27.6034C12.6447 28.7374 12.8007 29.9206 13.3887 30.9346C13.9743 31.9462 14.9187 32.6674 16.0467 32.9662C16.1247 32.9878 16.2015 32.9974 16.2783 32.9974C16.6767 32.9974 17.0403 32.731 17.1471 32.3278C17.2755 31.8478 16.9887 31.3534 16.5087 31.2274Z"
            fill="#B8B8B8" />
        <path fill-rule="evenodd" clip-rule="evenodd"
            d="M35.6078 18.0872C35.0234 17.0768 34.079 16.3568 32.951 16.058C32.471 15.9296 31.979 16.2164 31.8506 16.6964C31.7234 17.1764 32.009 17.6696 32.489 17.7968C33.1526 17.972 33.707 18.3968 34.0502 18.9896C34.397 19.5872 34.4894 20.2856 34.3106 20.9552C34.1834 21.4352 34.4678 21.9272 34.9478 22.0568C35.0258 22.0772 35.1038 22.0868 35.1806 22.0868C35.579 22.0868 35.9414 21.8216 36.0494 21.4184C36.353 20.2844 36.1958 19.1024 35.6078 18.0872Z"
            fill="#B8B8B8" />
        <path fill-rule="evenodd" clip-rule="evenodd"
            d="M16.6836 17.1586C16.7604 17.1802 16.8396 17.1886 16.9152 17.1886C17.3136 17.1886 17.6772 16.9246 17.7852 16.5214C18.1524 15.151 19.5756 14.3386 20.9424 14.6986C21.4176 14.833 21.9144 14.5426 22.0428 14.0602C22.17 13.5802 21.8844 13.087 21.4044 12.9598C19.0656 12.3406 16.6668 13.7314 16.0464 16.057C15.918 16.537 16.2036 17.0302 16.6836 17.1586Z"
            fill="#B8B8B8" />

    </symbol>
    <symbol id="icon-youtube" viewBox="0 0 49 49" fill="none">
        <path fill-rule="evenodd" clip-rule="evenodd"
            d="M27.8186 25.546L23.4122 28.054C23.2286 28.1536 23.0318 28.2028 22.8374 28.2028C22.6298 28.2028 22.4246 28.1464 22.2398 28.036C21.8845 27.8248 21.6721 27.454 21.6721 27.0412V22.024C21.6721 21.604 21.8905 21.2248 22.2554 21.0148C22.6178 20.8048 23.0498 20.8024 23.4146 21.0124L27.8186 23.5204C28.181 23.7244 28.4066 24.1144 28.4066 24.532C28.4066 24.952 28.181 25.3396 27.8186 25.546ZM35.3762 18.3676C35.0654 17.0836 34.0958 16.0564 32.8466 15.6808C30.7262 14.9812 18.1009 15.0208 16.1665 15.7228C14.9125 16.0804 13.9369 17.1124 13.6357 18.3628C12.9253 20.44 12.9253 28.6516 13.6249 30.706C13.9729 31.96 14.9473 32.9524 16.1269 33.28C17.1649 33.6568 20.8717 33.8428 24.557 33.8428C28.2182 33.8428 31.8602 33.6592 32.837 33.292C34.091 32.92 35.0642 31.8892 35.3606 30.658C36.0686 28.6204 36.071 20.4304 35.3762 18.3676Z"
            fill="#B8B8B8" />
    </symbol>
    <symbol id="icon-telegram" viewBox="0 0 49 49" fill="none">
        <path fill-rule="evenodd" clip-rule="evenodd"
            d="M25.0721 29.4686L22.6759 31.6953C22.3826 31.9688 21.9053 31.7441 21.9323 31.3437C22.0072 30.2122 22.1237 28.4931 22.2017 27.5373C22.2142 27.3865 22.341 27.2181 22.4617 27.1089C25.2603 24.5713 28.0652 22.0399 30.8691 19.5065C30.9731 19.4129 31.0958 19.182 31.0313 19.0603C30.9585 18.923 30.6226 18.9646 30.4832 19.052C26.9223 21.2942 23.3613 23.5354 19.8055 25.7849C19.5871 25.9222 19.3198 25.9555 19.0744 25.8765C17.608 25.4053 16.1333 24.9592 14.6638 24.4953C14.3258 24.3882 13.9243 24.2821 13.8858 23.863C13.8453 23.4252 14.2207 23.2172 14.5598 23.0809C15.9263 22.5297 17.3022 22.0025 18.6761 21.4721C23.6182 19.5678 28.5603 17.6646 33.5023 15.7614C33.6677 15.698 33.8882 15.6585 34.0608 15.6241C34.5787 15.5201 35.0447 15.7801 35.0956 16.3043C35.1341 16.6881 35.0665 17.1155 34.9864 17.4951C33.9568 22.3925 32.9137 27.2877 31.8716 32.1841C31.5908 33.5069 30.9107 33.7576 29.8155 32.9495C28.4043 31.9074 25.0721 29.4686 25.0721 29.4686Z"
            fill="#B8B8B8" />

    </symbol>
    <symbol id="icon-linkedin" viewBox="0 0 49 49" fill="none">
        <path fill-rule="evenodd" clip-rule="evenodd"
            d="M29.68 27.9305C29.68 28.3611 29.3306 28.7105 28.9 28.7105C28.4695 28.7105 28.12 28.3611 28.12 27.9305V24.3841C28.12 23.34 27.2735 22.4913 26.2324 22.4913C25.1914 22.4913 24.3448 23.34 24.3448 24.3841V27.9305C24.3448 28.3611 23.9954 28.7105 23.5648 28.7105C23.1343 28.7105 22.7848 28.3611 22.7848 27.9305V24.3841C22.7848 22.4799 24.3313 20.9313 26.2324 20.9313C28.1336 20.9313 29.68 22.4799 29.68 24.3841V27.9305ZM20.111 21.9089C19.6804 21.9089 19.2936 21.5179 19.2936 21.0873C19.2936 20.6567 19.6804 20.2657 20.111 20.2657C20.5416 20.2657 20.9264 20.6567 20.9264 21.0873C20.9264 21.5179 20.5416 21.9089 20.111 21.9089ZM20.89 27.9305C20.89 28.3611 20.5405 28.7105 20.11 28.7105C19.6794 28.7105 19.33 28.3611 19.33 27.9305V24.0087C19.33 23.5781 19.6794 23.2287 20.11 23.2287C20.5405 23.2287 20.89 23.5781 20.89 24.0087V27.9305ZM28.8907 14.6289H20.1193C16.8329 14.6289 14.625 16.9408 14.625 20.3801V28.6377C14.625 32.077 16.8329 34.3889 20.1193 34.3889H28.8896C32.176 34.3889 34.385 32.077 34.385 28.6377V20.3801C34.385 16.9408 32.1771 14.6289 28.8907 14.6289Z"
            fill="#B8B8B8" />
    </symbol>
    <symbol id="icon-instagram-fill" viewBox="0 0 49 49" fill="none">
        <path fill-rule="evenodd" clip-rule="evenodd"
            d="M24.3397 21.9922C22.761 21.9922 21.4766 23.2745 21.4766 24.8522C21.4766 26.4299 22.761 27.7122 24.3397 27.7122C25.9185 27.7122 27.2018 26.4299 27.2018 24.8522C27.2018 23.2745 25.9185 21.9922 24.3397 21.9922Z"
            fill="#B8B8B8" />
        <path fill-rule="evenodd" clip-rule="evenodd"
            d="M29.5636 20.7743C28.9708 20.7743 28.4872 20.2938 28.4872 19.7041C28.4872 19.1123 28.9708 18.6319 29.5636 18.6319C30.1564 18.6319 30.6389 19.1123 30.6389 19.7041C30.6389 20.2938 30.1564 20.7743 29.5636 20.7743ZM24.3428 29.2721C21.905 29.2721 19.9207 27.2899 19.9207 24.8521C19.9207 22.4144 21.905 20.4321 24.3428 20.4321C26.7816 20.4321 28.7648 22.4144 28.7648 24.8521C28.7648 27.2899 26.7816 29.2721 24.3428 29.2721ZM28.8907 14.6289H20.1183C16.8329 14.6289 14.625 16.9398 14.625 20.3801V28.6377C14.625 32.077 16.8329 34.3889 20.1183 34.3889H28.8896C32.176 34.3889 34.385 32.077 34.385 28.6377V20.3801C34.385 16.9398 32.1771 14.6289 28.8907 14.6289Z"
            fill="#B8B8B8" />
    </symbol>
    <symbol id="icon-twitter" viewBox="0 0 49 49" fill="none">
        <path fill-rule="evenodd" clip-rule="evenodd"
            d="M35.808 16.2987C35.6808 16.0995 35.4504 15.9879 35.2128 16.0275L32.8092 16.3851C32.1312 15.6267 30.0552 13.6923 27.1908 14.5587C24.7104 15.3195 23.5296 17.9571 23.4588 19.9707C20.3832 19.4067 17.5128 17.8923 15.3144 15.6603C15.1572 15.5007 14.9232 15.4419 14.7072 15.5091C14.4912 15.5763 14.3328 15.7587 14.2956 15.9807C13.1976 22.5123 14.616 26.8719 18.756 29.6079C17.2188 30.4551 15.456 30.8907 13.7208 30.8283C13.4832 30.8271 13.266 30.9531 13.1628 31.1655C13.0584 31.3767 13.0896 31.6299 13.2408 31.8123C15.0192 33.9507 18.3696 34.6839 21.0396 34.6839C21.348 34.6839 21.6468 34.6743 21.9336 34.6563C25.8216 34.4139 29.0268 32.8083 31.2024 30.0111C33.2628 27.3627 34.26 23.7231 34.0092 19.7331L34.002 19.6743L35.802 16.9515C35.9328 16.7547 35.9352 16.4979 35.808 16.2987Z"
            fill="#B8B8B8" />
    </symbol>
    <symbol id="icon-left-arrow" viewBox="0 0 48 48" fill="none">
 <path d="M16.25 24.2739L31.25 24.2739" stroke="white" stroke-width="1.5" stroke-linecap="round" stroke-linejoin="round"></path>
 <path d="M22.3008 30.2985L16.2508 24.2745L22.3008 18.2495" stroke="white" stroke-width="1.5" stroke-linecap="round" stroke-linejoin="round"></path>
    </symbol>
    <symbol id="icon-calender" viewBox="0 0 20 20" fill="none">
<path d="M2.57812 7.83594H17.4314" stroke="#979797" stroke-width="1.5" stroke-linecap="round" stroke-linejoin="round"/>
<path d="M13.7031 11.0908H13.7101" stroke="#979797" stroke-width="1.5" stroke-linecap="round" stroke-linejoin="round"/>
<path d="M10.0078 11.0908H10.0148" stroke="#979797" stroke-width="1.5" stroke-linecap="round" stroke-linejoin="round"/>
<path d="M6.29688 11.0908H6.30382" stroke="#979797" stroke-width="1.5" stroke-linecap="round" stroke-linejoin="round"/>
<path d="M13.7031 14.3301H13.7101" stroke="#979797" stroke-width="1.5" stroke-linecap="round" stroke-linejoin="round"/>
<path d="M10.0078 14.3301H10.0148" stroke="#979797" stroke-width="1.5" stroke-linecap="round" stroke-linejoin="round"/>
<path d="M6.29688 14.3301H6.30382" stroke="#979797" stroke-width="1.5" stroke-linecap="round" stroke-linejoin="round"/>
<path d="M13.3711 1.66699V4.40931" stroke="#979797" stroke-width="1.5" stroke-linecap="round" stroke-linejoin="round"/>
<path d="M6.64062 1.66699V4.40931" stroke="#979797" stroke-width="1.5" stroke-linecap="round" stroke-linejoin="round"/>
<path fill-rule="evenodd" clip-rule="evenodd" d="M13.5319 2.98242H6.4758C4.02856 2.98242 2.5 4.3457 2.5 6.85161V14.393C2.5 16.9383 4.02856 18.3331 6.4758 18.3331H13.5242C15.9791 18.3331 17.5 16.9619 17.5 14.456V6.85161C17.5077 4.3457 15.9868 2.98242 13.5319 2.98242Z" stroke="#979797" stroke-width="1.5" stroke-linecap="round" stroke-linejoin="round"/>
    </symbol>
    <symbol id="icon-clock" viewBox="0 0 20 20" fill="none">
<path d="M10 17.5C14.1424 17.5 17.5 14.1416 17.5 10C17.5 5.85757 14.1424 2.5 10 2.5C5.85757 2.5 2.5 5.85757 2.5 10C2.5 14.1416 5.85757 17.5 10 17.5Z" stroke="#979797" stroke-width="1.5" stroke-linecap="round" stroke-linejoin="round"/>
<path d="M12.3722 12.1427L9.72656 10.5616V7.14648" stroke="#979797" stroke-width="1.5" stroke-linecap="round" stroke-linejoin="round"/>

    </symbol>
    <symbol id="icon-airline" viewBox="0 0 20 20" fill="none">
<path d="M4.51968 12.6729H4.52468C7.30634 12.6729 10.5921 12.662 13.8646 12.6029C16.3938 12.5579 17.9096 10.9945 17.918 8.42037C17.918 8.2279 17.9121 7.50374 17.9105 7.26124C17.9054 7.1006 17.8388 6.94805 17.7244 6.8352C17.61 6.72235 17.4565 6.65785 17.2958 6.65507C17.1351 6.65229 16.9795 6.71143 16.8612 6.82025C16.743 6.92905 16.6711 7.0792 16.6605 7.23957C16.6605 7.38707 16.6646 7.66707 16.6663 7.9229H15.033C14.4288 7.9229 13.8213 7.9229 13.3096 7.9229L13.2721 3.35457C13.2714 3.26985 13.2534 3.18615 13.2194 3.10857C13.1853 3.031 13.1358 2.96114 13.0739 2.90325C13.0121 2.84535 12.9391 2.80063 12.8594 2.77177C12.7798 2.74292 12.6951 2.73055 12.6105 2.7354C12.4363 2.7454 12.2655 2.75124 12.0963 2.75707C11.7011 2.76172 11.3067 2.79206 10.9154 2.8479C10.5363 2.92535 10.1826 3.09637 9.88643 3.34539C9.59026 3.59441 9.36101 3.91354 9.21968 4.27374C8.62884 5.49207 8.04126 6.7104 7.48209 7.9404C7.50209 7.97207 7.48218 7.97957 7.41884 7.97624C6.35801 7.95874 5.47384 7.95124 4.54968 8.0004C3.64084 8.01331 2.77326 8.38187 2.13301 9.02704C1.95059 9.24654 1.8166 9.50212 1.73976 9.77695C1.66293 10.0518 1.64501 10.3398 1.68718 10.622C1.86801 12.032 3.28134 12.6729 4.51968 12.6729ZM16.603 9.17287C16.3621 10.5745 15.418 11.3245 13.8388 11.3529C10.5755 11.412 7.29718 11.4212 4.51968 11.4229C3.92718 11.4229 3.01968 11.1679 2.92634 10.4629C2.90618 10.3512 2.91059 10.2364 2.93934 10.1265C2.96818 10.0168 3.0206 9.91454 3.09293 9.82704C3.5091 9.44762 4.05318 9.2392 4.61626 9.2437C5.50043 9.1962 6.36634 9.2037 7.39801 9.2212C7.65659 9.23937 7.91426 9.17479 8.13368 9.03687C8.35318 8.89887 8.52309 8.69462 8.61884 8.4537C9.17468 7.2304 9.75709 6.02124 10.3446 4.81374C10.6296 4.2254 10.9088 4.10957 11.1197 4.07457C11.4202 4.03304 11.723 4.01022 12.0263 4.00624L12.0638 8.5512C12.0651 8.71612 12.1316 8.87379 12.2486 8.98995C12.3657 9.10604 12.5239 9.1712 12.6888 9.1712C13.2805 9.1712 14.1571 9.1712 15.0221 9.1712C15.5821 9.17287 16.1263 9.17287 16.6063 9.17287H16.603Z" fill="#979797"/>
<path d="M4.16349 17.2656H15.4219C15.5876 17.2656 15.7466 17.1998 15.8638 17.0825C15.981 16.9654 16.0469 16.8064 16.0469 16.6406C16.0469 16.4749 15.981 16.3159 15.8638 16.1987C15.7466 16.0815 15.5876 16.0156 15.4219 16.0156H4.16349C3.99774 16.0156 3.83883 16.0815 3.72158 16.1987C3.60441 16.3159 3.53849 16.4749 3.53849 16.6406C3.53849 16.8064 3.60441 16.9654 3.72158 17.0825C3.83883 17.1998 3.99774 17.2656 4.16349 17.2656Z" fill="#979797"/>

    </symbol>
    <symbol id="icon-internal-hotel" viewBox="0 0 37 38" fill="none">
<path fill-rule="evenodd" clip-rule="evenodd" d="M4.57812 30.4541C4.57812 29.8155 5.0958 29.2979 5.73438 29.2979H33.4844C34.1229 29.2979 34.6406 29.8155 34.6406 30.4541C34.6406 31.0927 34.1229 31.6104 33.4844 31.6104H5.73438C5.0958 31.6104 4.57812 31.0927 4.57812 30.4541Z" fill="#F18316"/>
<path fill-rule="evenodd" clip-rule="evenodd" d="M13.8555 17.9639C14.494 17.9639 15.0117 18.4816 15.0117 19.1201V19.1355C15.0117 19.7741 14.494 20.2918 13.8555 20.2918C13.2169 20.2918 12.6992 19.7741 12.6992 19.1355V19.1201C12.6992 18.4816 13.2169 17.9639 13.8555 17.9639Z" fill="#F18316"/>
<path fill-rule="evenodd" clip-rule="evenodd" d="M13.8555 12.8398C14.494 12.8398 15.0117 13.3575 15.0117 13.9961V14.0115C15.0117 14.6501 14.494 15.1678 13.8555 15.1678C13.2169 15.1678 12.6992 14.6501 12.6992 14.0115V13.9961C12.6992 13.3575 13.2169 12.8398 13.8555 12.8398Z" fill="#F18316"/>
<path fill-rule="evenodd" clip-rule="evenodd" d="M25.8516 24.2275C26.4901 24.2275 27.0078 24.7452 27.0078 25.3838V25.3992C27.0078 26.0378 26.4901 26.5555 25.8516 26.5555C25.2128 26.5555 24.6953 26.0378 24.6953 25.3992V25.3838C24.6953 24.7452 25.2128 24.2275 25.8516 24.2275Z" fill="#F18316"/>
<path fill-rule="evenodd" clip-rule="evenodd" d="M25.8516 19.6748C26.4901 19.6748 27.0078 20.1925 27.0078 20.8311V20.8465C27.0078 21.485 26.4901 22.0027 25.8516 22.0027C25.2128 22.0027 24.6953 21.485 24.6953 20.8465V20.8311C24.6953 20.1925 25.2128 19.6748 25.8516 19.6748Z" fill="#F18316"/>
<path fill-rule="evenodd" clip-rule="evenodd" d="M28.9921 13.2503C31.0422 13.0323 32.8311 14.6376 32.8311 16.7011V30.4501C32.8311 31.0887 32.3134 31.6063 31.6749 31.6063C31.0363 31.6063 30.5186 31.0887 30.5186 30.4501V16.7011C30.5186 16.0138 29.9229 15.4771 29.2372 15.5498C29.237 15.5498 29.2373 15.5498 29.2372 15.5498L20.1506 16.5233C19.5156 16.5913 18.9458 16.1317 18.8778 15.4968C18.8096 14.8618 19.2692 14.292 19.9042 14.2239L28.9921 13.2503Z" fill="#F18316"/>
<path fill-rule="evenodd" clip-rule="evenodd" d="M13.8555 24.3594C14.494 24.3594 15.0117 24.8769 15.0117 25.5156V30.452C15.0117 31.0906 14.494 31.6083 13.8555 31.6083C13.2169 31.6083 12.6992 31.0906 12.6992 30.452V25.5156C12.6992 24.8769 13.2169 24.3594 13.8555 24.3594Z" fill="#F18316"/>
<path fill-rule="evenodd" clip-rule="evenodd" d="M6.54688 9.85902C6.54688 7.80439 8.32243 6.20076 10.3666 6.40764L18.047 7.18604C18.0468 7.18601 18.0473 7.18606 18.047 7.18604C19.8205 7.36418 21.1684 8.85675 21.1684 10.6375V13.9351C21.179 13.9981 21.1846 14.0629 21.1846 14.129V30.4535C21.1846 31.0828 20.6818 31.5947 20.0562 31.6094C20.0416 31.6101 20.0269 31.6102 20.0121 31.6102C19.3736 31.6102 18.8559 31.0925 18.8559 30.454V10.6375C18.8559 10.0425 18.4065 9.54616 17.8163 9.487L10.1337 8.70839C10.1337 8.70839 10.1337 8.70839 10.1337 8.70839C9.4509 8.63937 8.85938 9.1747 8.85938 9.85902V30.454C8.85938 31.0925 8.34171 31.6102 7.70312 31.6102C7.06455 31.6102 6.54688 31.0925 6.54688 30.454V9.85902Z" fill="#F18316"/>

</symbol>
<symbol id="icon-foreign-hotel" viewBox="0 0 38 38" fill="none">
<path fill-rule="evenodd" clip-rule="evenodd" d="M19.3794 27.2176C20.0062 27.0955 20.6132 27.5048 20.7353 28.1316L20.7382 28.1471C20.8603 28.7737 20.451 29.3809 19.8242 29.5028C19.1973 29.6249 18.5904 29.2156 18.4684 28.5887L18.4653 28.5733C18.3434 27.9466 18.7526 27.3395 19.3794 27.2176Z" fill="#F18316"/>
<path fill-rule="evenodd" clip-rule="evenodd" d="M19.3794 18.9249C20.0062 18.8028 20.6132 19.2121 20.7353 19.8388L20.7382 19.8542C20.8603 20.481 20.451 21.0881 19.8242 21.2101C19.1973 21.3322 18.5904 20.9229 18.4684 20.296L18.4653 20.2806C18.3434 19.6539 18.7526 19.0468 19.3794 18.9249Z" fill="#F18316"/>
<path fill-rule="evenodd" clip-rule="evenodd" d="M19.3794 23.1162C20.0062 22.9943 20.6132 23.4034 20.7353 24.0303L20.7382 24.0457C20.8603 24.6725 20.451 25.2795 19.8242 25.4016C19.1973 25.5235 18.5904 25.1144 18.4684 24.4875L18.4653 24.4721C18.3434 23.8453 18.7526 23.2382 19.3794 23.1162Z" fill="#F18316"/>
<path fill-rule="evenodd" clip-rule="evenodd" d="M25.2035 27.2178C25.8303 27.0957 26.4375 27.505 26.5594 28.1319L26.5625 28.1473C26.6844 28.774 26.2753 29.3811 25.6484 29.503C25.0216 29.6251 24.4145 29.2158 24.2925 28.589L24.2896 28.5736C24.1675 27.9469 24.5768 27.3398 25.2035 27.2178Z" fill="#F18316"/>
<path fill-rule="evenodd" clip-rule="evenodd" d="M25.2035 18.9249C25.8303 18.8028 26.4375 19.2121 26.5594 19.8388L26.5625 19.8542C26.6844 20.481 26.2753 21.0881 25.6484 21.2101C25.0216 21.3322 24.4145 20.9229 24.2925 20.296L24.2896 20.2806C24.1675 19.6539 24.5768 19.0468 25.2035 18.9249Z" fill="#F18316"/>
<path fill-rule="evenodd" clip-rule="evenodd" d="M25.2035 23.1162C25.8303 22.9943 26.4375 23.4034 26.5594 24.0303L26.5625 24.0457C26.6844 24.6725 26.2753 25.2795 25.6484 25.4016C25.0216 25.5235 24.4145 25.1144 24.2925 24.4875L24.2896 24.4721C24.1675 23.8453 24.5768 23.2382 25.2035 23.1162Z" fill="#F18316"/>
<path fill-rule="evenodd" clip-rule="evenodd" d="M5.98682 32.875C5.98682 32.2364 6.50448 31.7188 7.14307 31.7188H33.4096C34.0482 31.7188 34.5658 32.2364 34.5658 32.875C34.5658 33.5136 34.0482 34.0312 33.4096 34.0312H7.14307C6.50448 34.0312 5.98682 33.5136 5.98682 32.875Z" fill="#F18316"/>
<path fill-rule="evenodd" clip-rule="evenodd" d="M12.6509 17.5661C12.6509 15.2416 14.535 13.3574 16.8596 13.3574H28.1936C30.5183 13.3574 32.4023 15.2416 32.4023 17.5661V32.8722C32.4023 33.5108 31.8846 34.0285 31.2461 34.0285C30.6075 34.0285 30.0898 33.5108 30.0898 32.8722V17.5661C30.0898 16.5187 29.241 15.6699 28.1936 15.6699H16.8596C15.8122 15.6699 14.9634 16.5187 14.9634 17.5661V32.8722C14.9634 33.5108 14.4457 34.0285 13.8071 34.0285C13.1685 34.0285 12.6509 33.5108 12.6509 32.8722V17.5661Z" fill="#F18316"/>
<path fill-rule="evenodd" clip-rule="evenodd" d="M13.578 8.86392C14.2136 8.80205 14.779 9.26714 14.8408 9.90273L14.8423 9.91814C14.9042 10.5537 14.4391 11.1191 13.8035 11.181C13.1679 11.2428 12.6026 10.7777 12.5407 10.1421L12.5392 10.1267C12.4774 9.49115 12.9424 8.92577 13.578 8.86392ZM17.9198 8.86392C18.5554 8.80205 19.1207 9.26714 19.1827 9.90273L19.1841 9.91814C19.246 10.5537 18.7809 11.1191 18.1453 11.181C17.5098 11.2428 16.9443 10.7777 16.8825 10.1421L16.881 10.1267C16.8192 9.49115 17.2843 8.92577 17.9198 8.86392Z" fill="#F18316"/>
<path fill-rule="evenodd" clip-rule="evenodd" d="M12.3626 6.28125C11.3115 6.28125 10.4634 7.12932 10.4634 8.179V32.8705C10.4634 33.5091 9.94572 34.0268 9.30713 34.0268C8.66856 34.0268 8.15088 33.5091 8.15088 32.8705V8.179C8.15088 5.85068 10.0358 3.96875 12.3626 3.96875H19.4726C21.7994 3.96875 23.6844 5.85068 23.6844 8.179V14.512C23.6844 15.1506 23.1667 15.6682 22.5282 15.6682C21.8896 15.6682 21.3719 15.1506 21.3719 14.512V8.179C21.3719 7.12932 20.5238 6.28125 19.4726 6.28125H12.3626Z" fill="#F18316"/>

</symbol>

<symbol id="icon-big-house" viewBox="0 0 38 38" fill="none">
<path fill-rule="evenodd" clip-rule="evenodd" d="M4.91138 32.8203C4.91138 32.1818 5.42905 31.6641 6.06763 31.6641H33.8176C34.4562 31.6641 34.9739 32.1818 34.9739 32.8203C34.9739 33.459 34.4562 33.9766 33.8176 33.9766H6.06763C5.42905 33.9766 4.91138 33.459 4.91138 32.8203Z" fill="#F18316"/>
<path fill-rule="evenodd" clip-rule="evenodd" d="M17.987 27.412L17.9856 27.4189V32.8264C17.9856 33.465 17.4679 33.9827 16.8293 33.9827C16.1908 33.9827 15.6731 33.465 15.6731 32.8264V27.4189C15.6731 26.1293 16.7263 25.0762 18.0158 25.0762H21.8769C23.1659 25.0762 24.2181 26.1304 24.2181 27.4189V32.8264C24.2181 33.465 23.7004 33.9827 23.0618 33.9827C22.4233 33.9827 21.9056 33.465 21.9056 32.8264V27.4189L21.9042 27.4118C21.9028 27.4086 21.8999 27.4038 21.8949 27.3988C21.89 27.3938 21.8852 27.391 21.8823 27.3898L21.8769 27.3887H18.0158L18.0088 27.3901C18.0058 27.3914 18.001 27.3942 17.996 27.3992C17.9911 27.4041 17.9883 27.4089 17.987 27.412Z" fill="#F18316"/>
<path fill-rule="evenodd" clip-rule="evenodd" d="M9.95592 21.1797C9.37489 21.1797 8.89966 21.6505 8.89966 22.2359V32.8244C8.89966 33.4629 8.382 33.9806 7.74341 33.9806C7.10483 33.9806 6.58716 33.4629 6.58716 32.8244V22.2359C6.58716 20.3641 8.10693 18.8672 9.95592 18.8672H11.7049C12.3435 18.8672 12.8612 19.3847 12.8612 20.0234C12.8612 20.662 12.3435 21.1797 11.7049 21.1797H9.95592Z" fill="#F18316"/>
<path fill-rule="evenodd" clip-rule="evenodd" d="M27.0168 20.0234C27.0168 19.3847 27.5345 18.8672 28.1731 18.8672H30.1111C31.96 18.8672 33.4798 20.3641 33.4798 22.2359V32.8244C33.4798 33.4629 32.9621 33.9806 32.3236 33.9806C31.685 33.9806 31.1673 33.4629 31.1673 32.8244V22.2359C31.1673 21.6505 30.6922 21.1797 30.1111 21.1797H28.1731C27.5345 21.1797 27.0168 20.662 27.0168 20.0234Z" fill="#F18316"/>
<path fill-rule="evenodd" clip-rule="evenodd" d="M18.2699 10.7132C19.3059 10.1113 20.5844 10.112 21.6205 10.7126L27.6736 14.2319C28.7023 14.8293 29.3339 15.9294 29.3339 17.116V32.8254C29.3339 33.464 28.8162 33.9817 28.1777 33.9817C27.5391 33.9817 27.0214 33.464 27.0214 32.8254V17.116C27.0214 16.7517 26.8276 16.4147 26.5128 16.232L20.4609 12.7133C20.4607 12.7132 20.461 12.7134 20.4609 12.7133C20.1411 12.5282 19.7485 12.5287 19.4317 12.7126C19.4317 12.7127 19.4318 12.7125 19.4317 12.7126L13.3777 16.2316C13.0629 16.4142 12.8684 16.7517 12.8684 17.116V32.8254C12.8684 33.464 12.3507 33.9817 11.7122 33.9817C11.0736 33.9817 10.5559 33.464 10.5559 32.8254V17.116C10.5559 15.9294 11.1868 14.8297 12.2156 14.2323L18.2699 10.7132Z" fill="#F18316"/>
<path fill-rule="evenodd" clip-rule="evenodd" d="M18.7864 5.17285C18.7864 4.53428 19.3041 4.0166 19.9426 4.0166H24.4907C25.1293 4.0166 25.6469 4.53428 25.6469 5.17285V8.69336C25.6469 9.33193 25.1293 9.84961 24.4907 9.84961H21.0989V11.4158C21.0989 12.0544 20.5812 12.5721 19.9426 12.5721C19.3041 12.5721 18.7864 12.0544 18.7864 11.4158V5.17285ZM21.0989 7.5371H23.3344V6.3291H21.0989V7.5371Z" fill="#F18316"/>
<path fill-rule="evenodd" clip-rule="evenodd" d="M19.9463 17.7051C20.8065 17.7051 21.5044 18.4022 21.5044 19.2632C21.5044 20.1232 20.8074 20.8216 19.9463 20.8216C19.0851 20.8216 18.3879 20.1232 18.3879 19.2632C18.3879 18.4022 19.086 17.7051 19.9463 17.7051Z" fill="#F18316"/>

</symbol>

<symbol id="icon-visa" viewBox="0 0 37 38" fill="none">
<path fill-rule="evenodd" clip-rule="evenodd" d="M4.45295 7.43253C5.86983 5.91246 7.88564 5.06445 10.2587 5.06445H27.5104C29.8894 5.06445 31.9062 5.91192 33.3225 7.43298C34.73 8.94471 35.4583 11.0278 35.4583 13.3574V24.6423C35.4583 26.9727 34.73 29.056 33.322 30.5676C31.9054 32.0884 29.8881 32.9353 27.5087 32.9353H10.2587C7.87998 32.9353 5.86347 32.0883 4.44746 30.5673C3.04017 29.0557 2.3125 26.9726 2.3125 24.6423V13.3574C2.3125 11.0264 3.04448 8.94358 4.45295 7.43253ZM6.14454 9.00929C5.20135 10.0212 4.625 11.5066 4.625 13.3574V24.6423C4.625 26.4956 5.19899 27.9808 6.14004 28.9915C7.07236 29.9931 8.45085 30.6228 10.2587 30.6228H27.5087C29.3176 30.6228 30.6971 29.993 31.6299 28.9914C32.5716 27.9805 33.1458 26.4954 33.1458 24.6423V13.3574C33.1458 11.5053 32.5716 10.02 31.6301 9.00884C30.6972 8.00697 29.3182 7.37695 27.5104 7.37695H10.2587C8.45852 7.37695 7.07933 8.00643 6.14454 9.00929Z" fill="#F18316"/>
<path fill-rule="evenodd" clip-rule="evenodd" d="M13.6524 14.9113C14.2344 15.1741 14.4932 15.8589 14.2304 16.4408L11.4854 22.5209C11.2828 22.9698 10.818 23.241 10.3276 23.1967C9.8371 23.1523 9.42851 22.8024 9.30956 22.3245L7.79623 16.2444C7.64198 15.6247 8.01929 14.9974 8.63896 14.8431C9.25864 14.6889 9.88602 15.0662 10.0403 15.6858L10.7488 18.5326L12.1227 15.4893C12.3855 14.9073 13.0703 14.6485 13.6524 14.9113Z" fill="#F18316"/>
<path fill-rule="evenodd" clip-rule="evenodd" d="M16.4831 14.8204C17.1153 14.9109 17.5544 15.4966 17.4639 16.1288L16.5939 22.2088C16.5034 22.8409 15.9178 23.28 15.2856 23.1896C14.6535 23.0991 14.2143 22.5133 14.3048 21.8812L15.1748 15.8012C15.2652 15.1691 15.851 14.7299 16.4831 14.8204Z" fill="#F18316"/>
<path fill-rule="evenodd" clip-rule="evenodd" d="M27.1214 14.8108C27.6069 14.8404 28.0221 15.1707 28.1599 15.6372L29.9565 21.7172C30.1375 22.3295 29.7877 22.9727 29.1754 23.1537C28.5629 23.3347 27.9198 22.9849 27.7388 22.3726L26.8447 19.3467L25.4751 22.5048C25.221 23.0908 24.5402 23.3597 23.9544 23.1056C23.3684 22.8515 23.0995 22.1707 23.3536 21.5848L25.9901 15.5048C26.1838 15.0586 26.6359 14.7811 27.1214 14.8108Z" fill="#F18316"/>
<path fill-rule="evenodd" clip-rule="evenodd" d="M20.2407 15.1309C21.0448 14.9505 21.9181 15.0945 22.5382 15.3336C23.1341 15.5633 23.4308 16.2326 23.2011 16.8284C22.9714 17.4243 22.3022 17.7211 21.7063 17.4912C21.5716 17.4392 21.3947 17.3942 21.2077 17.3739C21.0184 17.3532 20.859 17.3622 20.7468 17.3873C20.7095 17.3956 20.6833 17.4044 20.6658 17.4115M20.6638 17.438C20.6637 17.4397 20.6637 17.4414 20.6635 17.4429C20.6601 17.5065 20.6566 17.5747 20.894 17.7821C21.003 17.8772 21.116 17.9616 21.2668 18.0739C21.3143 18.1094 21.3653 18.1475 21.4213 18.1896C21.6277 18.3451 21.8961 18.5539 22.1338 18.8138L21.2807 19.594L22.1323 18.8121C22.4949 19.2071 22.8459 19.7917 22.8758 20.5058C22.9062 21.2294 22.5895 21.9074 22.0951 22.3618C21.5233 22.8884 20.8293 23.0474 20.239 23.0501C19.6568 23.0529 19.1026 22.9077 18.6668 22.7398C18.0708 22.5102 17.7738 21.8412 18.0034 21.2451C18.2328 20.6493 18.902 20.3522 19.4979 20.5818C19.7586 20.6823 20.0194 20.7387 20.228 20.7376C20.4283 20.7367 20.5004 20.6866 20.5285 20.6609L20.5305 20.6589C20.541 20.6493 20.5522 20.634 20.5596 20.6169C20.5633 20.6084 20.5647 20.6029 20.5652 20.6003C20.5643 20.5939 20.5602 20.5738 20.5436 20.5389C20.522 20.4937 20.4845 20.4367 20.4289 20.3761L20.4274 20.3744C20.3443 20.2836 20.224 20.1831 20.0294 20.0365C19.9978 20.0126 19.9628 19.9865 19.9252 19.9585C19.7641 19.8387 19.5565 19.6842 19.373 19.524C18.8797 19.0931 18.3022 18.4031 18.3541 17.3252V17.3235C18.3831 16.7382 18.5934 16.2124 18.9847 15.8083C19.3597 15.4209 19.8241 15.2243 20.2407 15.1309" fill="#F18316"/>
</symbol>
<symbol id="icon-search-tour" viewBox="0 0 30 30"  fill="none">
<path d="M12.9784 22.8776C18.1009 22.8776 22.2536 18.725 22.2536 13.6024C22.2536 8.47981 18.1009 4.32715 12.9784 4.32715C7.85579 4.32715 3.70312 8.47981 3.70312 13.6024C3.70312 18.725 7.85579 22.8776 12.9784 22.8776Z" stroke="#8F8F8F" stroke-width="1.38462" stroke-linecap="square"/>
<path d="M19.3125 20.4326L24.5665 25.6729" stroke="#8F8F8F" stroke-width="1.38462" stroke-linecap="square"/>
</symbol>
</svg>